<mxfile host="65bd71144e">
    <diagram name="Banking System Class Diagram" id="0">
        <mxGraphModel dx="1617" dy="1910" grid="1" gridSize="10" guides="1" tooltips="1" connect="1" arrows="1" fold="1" page="1" pageScale="1" pageWidth="827" pageHeight="1169" math="0" shadow="0">
            <root>
                <mxCell id="0"/>
                <mxCell id="1" parent="0"/>
                <mxCell id="Ptf1iHlzsKSBBy57DyXb-19" value="User" style="swimlane;fontStyle=1;align=center;verticalAlign=top;childLayout=stackLayout;horizontal=1;startSize=26;horizontalStack=0;resizeParent=1;resizeParentMax=0;resizeLast=0;collapsible=1;marginBottom=0;whiteSpace=wrap;html=1;" parent="1" vertex="1">
                    <mxGeometry x="120" y="142" width="160" height="120" as="geometry"/>
                </mxCell>
                <mxCell id="Ptf1iHlzsKSBBy57DyXb-20" value="- citizen_id: str&lt;div&gt;- name: str&lt;/div&gt;" style="text;strokeColor=none;fillColor=none;align=left;verticalAlign=top;spacingLeft=4;spacingRight=4;overflow=hidden;rotatable=0;points=[[0,0.5],[1,0.5]];portConstraint=eastwest;whiteSpace=wrap;html=1;" parent="Ptf1iHlzsKSBBy57DyXb-19" vertex="1">
                    <mxGeometry y="26" width="160" height="44" as="geometry"/>
                </mxCell>
                <mxCell id="Ptf1iHlzsKSBBy57DyXb-21" value="" style="line;strokeWidth=1;fillColor=none;align=left;verticalAlign=middle;spacingTop=-1;spacingLeft=3;spacingRight=3;rotatable=0;labelPosition=right;points=[];portConstraint=eastwest;strokeColor=inherit;" parent="Ptf1iHlzsKSBBy57DyXb-19" vertex="1">
                    <mxGeometry y="70" width="160" height="8" as="geometry"/>
                </mxCell>
                <mxCell id="Ptf1iHlzsKSBBy57DyXb-22" value="+ citizen_id()&lt;div&gt;+ name()&lt;/div&gt;" style="text;strokeColor=none;fillColor=none;align=left;verticalAlign=top;spacingLeft=4;spacingRight=4;overflow=hidden;rotatable=0;points=[[0,0.5],[1,0.5]];portConstraint=eastwest;whiteSpace=wrap;html=1;" parent="Ptf1iHlzsKSBBy57DyXb-19" vertex="1">
                    <mxGeometry y="78" width="160" height="42" as="geometry"/>
                </mxCell>
                <mxCell id="Ptf1iHlzsKSBBy57DyXb-23" value="Account" style="swimlane;fontStyle=1;align=center;verticalAlign=top;childLayout=stackLayout;horizontal=1;startSize=26;horizontalStack=0;resizeParent=1;resizeParentMax=0;resizeLast=0;collapsible=1;marginBottom=0;whiteSpace=wrap;html=1;" parent="1" vertex="1">
                    <mxGeometry x="440" y="90" width="160" height="200" as="geometry"/>
                </mxCell>
                <mxCell id="Ptf1iHlzsKSBBy57DyXb-24" value="- account_number: str&lt;div&gt;- owner: User&lt;/div&gt;&lt;div&gt;- balance: float&lt;/div&gt;&lt;div&gt;- transactions: list&lt;/div&gt;" style="text;strokeColor=none;fillColor=none;align=left;verticalAlign=top;spacingLeft=4;spacingRight=4;overflow=hidden;rotatable=0;points=[[0,0.5],[1,0.5]];portConstraint=eastwest;whiteSpace=wrap;html=1;" parent="Ptf1iHlzsKSBBy57DyXb-23" vertex="1">
                    <mxGeometry y="26" width="160" height="74" as="geometry"/>
                </mxCell>
                <mxCell id="Ptf1iHlzsKSBBy57DyXb-25" value="" style="line;strokeWidth=1;fillColor=none;align=left;verticalAlign=middle;spacingTop=-1;spacingLeft=3;spacingRight=3;rotatable=0;labelPosition=right;points=[];portConstraint=eastwest;strokeColor=inherit;" parent="Ptf1iHlzsKSBBy57DyXb-23" vertex="1">
                    <mxGeometry y="100" width="160" height="8" as="geometry"/>
                </mxCell>
                <mxCell id="Ptf1iHlzsKSBBy57DyXb-26" value="+ account_number()&lt;div&gt;+ owner()&lt;/div&gt;&lt;div&gt;+ balance()&lt;/div&gt;&lt;div&gt;+ transactions()&lt;/div&gt;&lt;div&gt;+ add_transaction&lt;/div&gt;&lt;div&gt;&lt;br&gt;&lt;/div&gt;" style="text;strokeColor=none;fillColor=none;align=left;verticalAlign=top;spacingLeft=4;spacingRight=4;overflow=hidden;rotatable=0;points=[[0,0.5],[1,0.5]];portConstraint=eastwest;whiteSpace=wrap;html=1;" parent="Ptf1iHlzsKSBBy57DyXb-23" vertex="1">
                    <mxGeometry y="108" width="160" height="92" as="geometry"/>
                </mxCell>
                <mxCell id="Ptf1iHlzsKSBBy57DyXb-28" value="ATMCard" style="swimlane;fontStyle=1;align=center;verticalAlign=top;childLayout=stackLayout;horizontal=1;startSize=26;horizontalStack=0;resizeParent=1;resizeParentMax=0;resizeLast=0;collapsible=1;marginBottom=0;whiteSpace=wrap;html=1;" parent="1" vertex="1">
                    <mxGeometry x="440" y="462" width="160" height="190" as="geometry"/>
                </mxCell>
                <mxCell id="Ptf1iHlzsKSBBy57DyXb-29" value="- card_number: str&lt;div&gt;- account: Account&lt;/div&gt;&lt;div&gt;- pin: str&lt;/div&gt;" style="text;strokeColor=none;fillColor=none;align=left;verticalAlign=top;spacingLeft=4;spacingRight=4;overflow=hidden;rotatable=0;points=[[0,0.5],[1,0.5]];portConstraint=eastwest;whiteSpace=wrap;html=1;" parent="Ptf1iHlzsKSBBy57DyXb-28" vertex="1">
                    <mxGeometry y="26" width="160" height="54" as="geometry"/>
                </mxCell>
                <mxCell id="Ptf1iHlzsKSBBy57DyXb-30" value="" style="line;strokeWidth=1;fillColor=none;align=left;verticalAlign=middle;spacingTop=-1;spacingLeft=3;spacingRight=3;rotatable=0;labelPosition=right;points=[];portConstraint=eastwest;strokeColor=inherit;" parent="Ptf1iHlzsKSBBy57DyXb-28" vertex="1">
                    <mxGeometry y="80" width="160" height="8" as="geometry"/>
                </mxCell>
                <mxCell id="Ptf1iHlzsKSBBy57DyXb-31" value="&lt;span style=&quot;text-wrap-mode: nowrap;&quot;&gt;+ card_number()&lt;/span&gt;&lt;br style=&quot;text-wrap-mode: nowrap;&quot;&gt;&lt;span style=&quot;text-wrap-mode: nowrap;&quot;&gt;+ account()&lt;/span&gt;&lt;br style=&quot;text-wrap-mode: nowrap;&quot;&gt;&lt;span style=&quot;text-wrap-mode: nowrap;&quot;&gt;+ pin()&lt;/span&gt;&lt;br style=&quot;text-wrap-mode: nowrap;&quot;&gt;&lt;span style=&quot;text-wrap-mode: nowrap;&quot;&gt;+ balance()&lt;/span&gt;&lt;br style=&quot;text-wrap-mode: nowrap;&quot;&gt;&lt;span style=&quot;text-wrap-mode: nowrap;&quot;&gt;+ add_transaction()&lt;/span&gt;&lt;br style=&quot;text-wrap-mode: nowrap;&quot;&gt;&lt;span style=&quot;text-wrap-mode: nowrap;&quot;&gt;+ owner()&lt;/span&gt;" style="text;strokeColor=none;fillColor=none;align=left;verticalAlign=top;spacingLeft=4;spacingRight=4;overflow=hidden;rotatable=0;points=[[0,0.5],[1,0.5]];portConstraint=eastwest;whiteSpace=wrap;html=1;" parent="Ptf1iHlzsKSBBy57DyXb-28" vertex="1">
                    <mxGeometry y="88" width="160" height="102" as="geometry"/>
                </mxCell>
                <mxCell id="Ptf1iHlzsKSBBy57DyXb-32" value="ATMMachine" style="swimlane;fontStyle=1;align=center;verticalAlign=top;childLayout=stackLayout;horizontal=1;startSize=26;horizontalStack=0;resizeParent=1;resizeParentMax=0;resizeLast=0;collapsible=1;marginBottom=0;whiteSpace=wrap;html=1;" parent="1" vertex="1">
                    <mxGeometry x="254" y="772" width="200" height="210" as="geometry"/>
                </mxCell>
                <mxCell id="Ptf1iHlzsKSBBy57DyXb-33" value="&lt;span style=&quot;text-wrap-mode: nowrap;&quot;&gt;- machine_id: str&lt;/span&gt;&lt;br style=&quot;text-wrap-mode: nowrap;&quot;&gt;&lt;span style=&quot;text-wrap-mode: nowrap;&quot;&gt;- atm_balance: float&lt;/span&gt;&lt;br style=&quot;text-wrap-mode: nowrap;&quot;&gt;&lt;span style=&quot;text-wrap-mode: nowrap;&quot;&gt;- ANNUAL_FEE: int&lt;/span&gt;&lt;br style=&quot;text-wrap-mode: nowrap;&quot;&gt;&lt;span style=&quot;text-wrap-mode: nowrap;&quot;&gt;- MAXIMUM_WITHDRAWAL: int&lt;/span&gt;" style="text;strokeColor=none;fillColor=none;align=left;verticalAlign=top;spacingLeft=4;spacingRight=4;overflow=hidden;rotatable=0;points=[[0,0.5],[1,0.5]];portConstraint=eastwest;whiteSpace=wrap;html=1;" parent="Ptf1iHlzsKSBBy57DyXb-32" vertex="1">
                    <mxGeometry y="26" width="200" height="74" as="geometry"/>
                </mxCell>
                <mxCell id="Ptf1iHlzsKSBBy57DyXb-34" value="" style="line;strokeWidth=1;fillColor=none;align=left;verticalAlign=middle;spacingTop=-1;spacingLeft=3;spacingRight=3;rotatable=0;labelPosition=right;points=[];portConstraint=eastwest;strokeColor=inherit;" parent="Ptf1iHlzsKSBBy57DyXb-32" vertex="1">
                    <mxGeometry y="100" width="200" height="8" as="geometry"/>
                </mxCell>
                <mxCell id="Ptf1iHlzsKSBBy57DyXb-35" value="&lt;span style=&quot;text-wrap-mode: nowrap;&quot;&gt;+ machine_id()&lt;/span&gt;&lt;br style=&quot;text-wrap-mode: nowrap;&quot;&gt;&lt;span style=&quot;text-wrap-mode: nowrap;&quot;&gt;+ atm_balance()&lt;/span&gt;&lt;br style=&quot;text-wrap-mode: nowrap;&quot;&gt;&lt;span style=&quot;text-wrap-mode: nowrap;&quot;&gt;+ insert_card()&lt;/span&gt;&lt;br style=&quot;text-wrap-mode: nowrap;&quot;&gt;&lt;span style=&quot;text-wrap-mode: nowrap;&quot;&gt;+ deposit()&lt;/span&gt;&lt;br style=&quot;text-wrap-mode: nowrap;&quot;&gt;&lt;span style=&quot;text-wrap-mode: nowrap;&quot;&gt;+ withdraw()&lt;/span&gt;&lt;br style=&quot;text-wrap-mode: nowrap;&quot;&gt;&lt;span style=&quot;text-wrap-mode: nowrap;&quot;&gt;+ transfer()&lt;/span&gt;" style="text;strokeColor=none;fillColor=none;align=left;verticalAlign=top;spacingLeft=4;spacingRight=4;overflow=hidden;rotatable=0;points=[[0,0.5],[1,0.5]];portConstraint=eastwest;whiteSpace=wrap;html=1;" parent="Ptf1iHlzsKSBBy57DyXb-32" vertex="1">
                    <mxGeometry y="108" width="200" height="102" as="geometry"/>
                </mxCell>
                <mxCell id="Ptf1iHlzsKSBBy57DyXb-36" value="Transaction" style="swimlane;fontStyle=1;align=center;verticalAlign=top;childLayout=stackLayout;horizontal=1;startSize=26;horizontalStack=0;resizeParent=1;resizeParentMax=0;resizeLast=0;collapsible=1;marginBottom=0;whiteSpace=wrap;html=1;" parent="1" vertex="1">
                    <mxGeometry x="573" y="810" width="160" height="134" as="geometry"/>
                </mxCell>
                <mxCell id="Ptf1iHlzsKSBBy57DyXb-37" value="&lt;span style=&quot;text-wrap-mode: nowrap;&quot;&gt;- transaction_type: str&lt;/span&gt;&lt;br style=&quot;text-wrap-mode: nowrap;&quot;&gt;&lt;span style=&quot;text-wrap-mode: nowrap;&quot;&gt;- amount: float&lt;/span&gt;&lt;br style=&quot;text-wrap-mode: nowrap;&quot;&gt;&lt;span style=&quot;text-wrap-mode: nowrap;&quot;&gt;- atm_id: str&lt;/span&gt;&lt;br style=&quot;text-wrap-mode: nowrap;&quot;&gt;&lt;span style=&quot;text-wrap-mode: nowrap;&quot;&gt;- account_number: str&lt;/span&gt;" style="text;strokeColor=none;fillColor=none;align=left;verticalAlign=top;spacingLeft=4;spacingRight=4;overflow=hidden;rotatable=0;points=[[0,0.5],[1,0.5]];portConstraint=eastwest;whiteSpace=wrap;html=1;" parent="Ptf1iHlzsKSBBy57DyXb-36" vertex="1">
                    <mxGeometry y="26" width="160" height="74" as="geometry"/>
                </mxCell>
                <mxCell id="Ptf1iHlzsKSBBy57DyXb-38" value="" style="line;strokeWidth=1;fillColor=none;align=left;verticalAlign=middle;spacingTop=-1;spacingLeft=3;spacingRight=3;rotatable=0;labelPosition=right;points=[];portConstraint=eastwest;strokeColor=inherit;" parent="Ptf1iHlzsKSBBy57DyXb-36" vertex="1">
                    <mxGeometry y="100" width="160" height="8" as="geometry"/>
                </mxCell>
                <mxCell id="Ptf1iHlzsKSBBy57DyXb-39" value="&lt;span style=&quot;text-wrap-mode: nowrap;&quot;&gt;+ __str__()&lt;/span&gt;" style="text;strokeColor=none;fillColor=none;align=left;verticalAlign=top;spacingLeft=4;spacingRight=4;overflow=hidden;rotatable=0;points=[[0,0.5],[1,0.5]];portConstraint=eastwest;whiteSpace=wrap;html=1;" parent="Ptf1iHlzsKSBBy57DyXb-36" vertex="1">
                    <mxGeometry y="108" width="160" height="26" as="geometry"/>
                </mxCell>
                <mxCell id="Ptf1iHlzsKSBBy57DyXb-40" value="Bank" style="swimlane;fontStyle=1;align=center;verticalAlign=top;childLayout=stackLayout;horizontal=1;startSize=26;horizontalStack=0;resizeParent=1;resizeParentMax=0;resizeLast=0;collapsible=1;marginBottom=0;whiteSpace=wrap;html=1;" parent="1" vertex="1">
                    <mxGeometry x="120" y="442" width="160" height="230" as="geometry"/>
                </mxCell>
                <mxCell id="Ptf1iHlzsKSBBy57DyXb-41" value="&lt;span style=&quot;text-wrap-mode: nowrap;&quot;&gt;- users: list&lt;/span&gt;&lt;br style=&quot;text-wrap-mode: nowrap;&quot;&gt;&lt;span style=&quot;text-wrap-mode: nowrap;&quot;&gt;- accounts: list&lt;/span&gt;&lt;br style=&quot;text-wrap-mode: nowrap;&quot;&gt;&lt;span style=&quot;text-wrap-mode: nowrap;&quot;&gt;- cards: list&lt;/span&gt;&lt;br style=&quot;text-wrap-mode: nowrap;&quot;&gt;&lt;span style=&quot;text-wrap-mode: nowrap;&quot;&gt;- atms: list&lt;/span&gt;" style="text;strokeColor=none;fillColor=none;align=left;verticalAlign=top;spacingLeft=4;spacingRight=4;overflow=hidden;rotatable=0;points=[[0,0.5],[1,0.5]];portConstraint=eastwest;whiteSpace=wrap;html=1;" parent="Ptf1iHlzsKSBBy57DyXb-40" vertex="1">
                    <mxGeometry y="26" width="160" height="74" as="geometry"/>
                </mxCell>
                <mxCell id="Ptf1iHlzsKSBBy57DyXb-42" value="" style="line;strokeWidth=1;fillColor=none;align=left;verticalAlign=middle;spacingTop=-1;spacingLeft=3;spacingRight=3;rotatable=0;labelPosition=right;points=[];portConstraint=eastwest;strokeColor=inherit;" parent="Ptf1iHlzsKSBBy57DyXb-40" vertex="1">
                    <mxGeometry y="100" width="160" height="8" as="geometry"/>
                </mxCell>
                <mxCell id="Ptf1iHlzsKSBBy57DyXb-43" value="&lt;span style=&quot;text-wrap-mode: nowrap;&quot;&gt;+ add_user()&lt;/span&gt;&lt;br style=&quot;text-wrap-mode: nowrap;&quot;&gt;&lt;span style=&quot;text-wrap-mode: nowrap;&quot;&gt;+ add_account()&lt;/span&gt;&lt;br style=&quot;text-wrap-mode: nowrap;&quot;&gt;&lt;span style=&quot;text-wrap-mode: nowrap;&quot;&gt;+ add_card()&lt;/span&gt;&lt;br style=&quot;text-wrap-mode: nowrap;&quot;&gt;&lt;span style=&quot;text-wrap-mode: nowrap;&quot;&gt;+ add_atm()&lt;/span&gt;&lt;br style=&quot;text-wrap-mode: nowrap;&quot;&gt;&lt;span style=&quot;text-wrap-mode: nowrap;&quot;&gt;+ get_atm()&lt;/span&gt;&lt;br style=&quot;text-wrap-mode: nowrap;&quot;&gt;&lt;span style=&quot;text-wrap-mode: nowrap;&quot;&gt;+ find_card()&lt;/span&gt;&lt;br style=&quot;text-wrap-mode: nowrap;&quot;&gt;&lt;span style=&quot;text-wrap-mode: nowrap;&quot;&gt;+ find_account()&lt;/span&gt;" style="text;strokeColor=none;fillColor=none;align=left;verticalAlign=top;spacingLeft=4;spacingRight=4;overflow=hidden;rotatable=0;points=[[0,0.5],[1,0.5]];portConstraint=eastwest;whiteSpace=wrap;html=1;" parent="Ptf1iHlzsKSBBy57DyXb-40" vertex="1">
                    <mxGeometry y="108" width="160" height="122" as="geometry"/>
                </mxCell>
                <mxCell id="Ptf1iHlzsKSBBy57DyXb-54" value="" style="endArrow=diamondThin;endFill=1;endSize=24;html=1;rounded=0;fontSize=12;entryX=1;entryY=0.5;entryDx=0;entryDy=0;exitX=0;exitY=0.5;exitDx=0;exitDy=0;" parent="1" source="Ptf1iHlzsKSBBy57DyXb-23" target="Ptf1iHlzsKSBBy57DyXb-20" edge="1">
                    <mxGeometry width="160" relative="1" as="geometry">
                        <mxPoint x="390" y="482" as="sourcePoint"/>
                        <mxPoint x="550" y="482" as="targetPoint"/>
                    </mxGeometry>
                </mxCell>
                <mxCell id="Ptf1iHlzsKSBBy57DyXb-55" value="" style="endArrow=diamondThin;endFill=1;endSize=24;html=1;rounded=0;fontSize=12;exitX=0.5;exitY=0;exitDx=0;exitDy=0;" parent="1" source="Ptf1iHlzsKSBBy57DyXb-28" edge="1">
                    <mxGeometry width="160" relative="1" as="geometry">
                        <mxPoint x="450" y="200" as="sourcePoint"/>
                        <mxPoint x="520" y="292" as="targetPoint"/>
                    </mxGeometry>
                </mxCell>
                <mxCell id="Ptf1iHlzsKSBBy57DyXb-56" value="1" style="text;html=1;align=center;verticalAlign=middle;whiteSpace=wrap;rounded=0;fontSize=16;" parent="1" vertex="1">
                    <mxGeometry x="280" y="162" width="60" height="30" as="geometry"/>
                </mxCell>
                <mxCell id="Ptf1iHlzsKSBBy57DyXb-57" value="*" style="text;html=1;align=center;verticalAlign=middle;whiteSpace=wrap;rounded=0;fontSize=16;" parent="1" vertex="1">
                    <mxGeometry x="394" y="162" width="60" height="30" as="geometry"/>
                </mxCell>
                <mxCell id="Ptf1iHlzsKSBBy57DyXb-58" value="1" style="text;html=1;align=center;verticalAlign=middle;whiteSpace=wrap;rounded=0;fontSize=16;" parent="1" vertex="1">
                    <mxGeometry x="500" y="302" width="60" height="30" as="geometry"/>
                </mxCell>
                <mxCell id="Ptf1iHlzsKSBBy57DyXb-59" value="1" style="text;html=1;align=center;verticalAlign=middle;whiteSpace=wrap;rounded=0;fontSize=16;" parent="1" vertex="1">
                    <mxGeometry x="500" y="432" width="60" height="30" as="geometry"/>
                </mxCell>
                <mxCell id="Ptf1iHlzsKSBBy57DyXb-60" value="" style="endArrow=none;html=1;rounded=0;fontSize=12;startSize=8;endSize=8;exitX=1;exitY=0.5;exitDx=0;exitDy=0;entryX=0.5;entryY=0;entryDx=0;entryDy=0;edgeStyle=orthogonalEdgeStyle;" parent="1" source="Ptf1iHlzsKSBBy57DyXb-24" target="Ptf1iHlzsKSBBy57DyXb-36" edge="1">
                    <mxGeometry width="50" height="50" relative="1" as="geometry">
                        <mxPoint x="460" y="392" as="sourcePoint"/>
                        <mxPoint x="510" y="342" as="targetPoint"/>
                    </mxGeometry>
                </mxCell>
                <mxCell id="Ptf1iHlzsKSBBy57DyXb-61" value="1" style="text;html=1;align=center;verticalAlign=middle;whiteSpace=wrap;rounded=0;fontSize=16;" parent="1" vertex="1">
                    <mxGeometry x="580" y="122" width="60" height="30" as="geometry"/>
                </mxCell>
                <mxCell id="Ptf1iHlzsKSBBy57DyXb-62" value="*" style="text;html=1;align=center;verticalAlign=middle;whiteSpace=wrap;rounded=0;fontSize=16;" parent="1" vertex="1">
                    <mxGeometry x="640" y="780" width="60" height="30" as="geometry"/>
                </mxCell>
                <mxCell id="Ptf1iHlzsKSBBy57DyXb-63" value="" style="endArrow=diamondThin;endFill=1;endSize=24;html=1;rounded=0;fontSize=12;exitX=0.5;exitY=0;exitDx=0;exitDy=0;entryX=0.483;entryY=1.002;entryDx=0;entryDy=0;entryPerimeter=0;edgeStyle=orthogonalEdgeStyle;" parent="1" source="Ptf1iHlzsKSBBy57DyXb-32" target="Ptf1iHlzsKSBBy57DyXb-43" edge="1">
                    <mxGeometry width="160" relative="1" as="geometry">
                        <mxPoint x="270" y="702" as="sourcePoint"/>
                        <mxPoint x="180" y="682" as="targetPoint"/>
                    </mxGeometry>
                </mxCell>
                <mxCell id="Ptf1iHlzsKSBBy57DyXb-64" value="1" style="text;html=1;align=center;verticalAlign=middle;whiteSpace=wrap;rounded=0;fontSize=16;" parent="1" vertex="1">
                    <mxGeometry x="180" y="692" width="60" height="30" as="geometry"/>
                </mxCell>
                <mxCell id="Ptf1iHlzsKSBBy57DyXb-65" value="*" style="text;html=1;align=center;verticalAlign=middle;whiteSpace=wrap;rounded=0;fontSize=16;" parent="1" vertex="1">
                    <mxGeometry x="340" y="742" width="60" height="30" as="geometry"/>
                </mxCell>
                <mxCell id="Ptf1iHlzsKSBBy57DyXb-66" value="" style="endArrow=none;html=1;rounded=0;fontSize=12;startSize=8;endSize=8;curved=1;entryX=0.5;entryY=0;entryDx=0;entryDy=0;" parent="1" target="Ptf1iHlzsKSBBy57DyXb-40" edge="1">
                    <mxGeometry width="50" height="50" relative="1" as="geometry">
                        <mxPoint x="200" y="262" as="sourcePoint"/>
                        <mxPoint x="430" y="442" as="targetPoint"/>
                    </mxGeometry>
                </mxCell>
                <mxCell id="Ptf1iHlzsKSBBy57DyXb-67" value="0..*" style="text;html=1;align=center;verticalAlign=middle;whiteSpace=wrap;rounded=0;fontSize=16;" parent="1" vertex="1">
                    <mxGeometry x="190" y="412" width="60" height="30" as="geometry"/>
                </mxCell>
                <mxCell id="Ptf1iHlzsKSBBy57DyXb-68" value="*" style="text;html=1;align=center;verticalAlign=middle;whiteSpace=wrap;rounded=0;fontSize=16;" parent="1" vertex="1">
                    <mxGeometry x="180" y="262" width="60" height="30" as="geometry"/>
                </mxCell>
                <UserObject label="" mermaidData="{&#10;  &quot;data&quot;: &quot;classDiagram\n    class User {\n        -citizen_id: str\n        -name: str\n        +citizen_id() str\n        +full_name() str\n    }\n\n    class Account {\n        -account_number: str\n        -owner: User\n        -balance: float\n        -transactions: list\n        +account_number() str\n        +owner() User\n        +balance() float\n        +transactions() list\n        +balance(float)\n        +add_transaction(transaction)\n        +deposit(amount: float)\n        +withdraw(amount: float)\n    }\n\n    class ATMCard {\n        -card_number: str\n        -account: Account\n        -pin: str\n        +card_number() str\n        +account() Account\n        +pin() str\n        +balance() float\n        +account_number() str\n        +owner() User\n        +add_transaction(transaction)\n    }\n\n    class ATMMachine {\n        -machine_id: str\n        -atm_balance: float\n        +machine_id() str\n        +atm_balance() float\n        +insert_card(card_number: str, pin: str)\n        +deposit(account: Account, amount: float)\n        +withdraw(account: Account, amount: float)\n        +transfer(sender: Account, receiver: Account, amount: float)\n    }\n\n    class Transaction {\n        -transaction_type: str\n        -amount: float\n        -atm_id: str\n        -account_number: str\n        +__str__()\n    }\n\n    class Bank {\n        -users: list\n        -accounts: list\n        -cards: list\n        -atms: list\n        +add_user(user: User)\n        +add_account(account: Account)\n        +add_card(card: ATMCard)\n        +add_atm(atm: ATMMachine)\n        +get_atm(machine_id: str) ATMMachine\n        +find_card(card_number: str) ATMCard\n        +find_account(account_number: str) Account\n    }\n\n    %% Relationships\n    Bank \&quot;1\&quot; *-- \&quot;many\&quot; User : \&quot;manages\&quot;\n    Bank \&quot;1\&quot; *-- \&quot;many\&quot; Account : \&quot;manages\&quot;\n    Bank \&quot;1\&quot; *-- \&quot;many\&quot; ATMCard : \&quot;manages\&quot;\n    Bank \&quot;1\&quot; *-- \&quot;many\&quot; ATMMachine : \&quot;manages\&quot;\n    Account \&quot;1\&quot; o-- \&quot;1\&quot; User : \&quot;owned by\&quot;\n    ATMCard \&quot;1\&quot; o-- \&quot;1\&quot; Account : \&quot;linked to\&quot;\n    ATMMachine \&quot;1\&quot; o-- \&quot;many\&quot; Transaction : \&quot;logs\&quot;\n    Account \&quot;1\&quot; *-- \&quot;many\&quot; Transaction : \&quot;records\&quot;\n&quot;,&#10;  &quot;config&quot;: {&#10;    &quot;theme&quot;: &quot;neutral&quot;,&#10;    &quot;arrowMarkerAbsolute&quot;: false,&#10;    &quot;flowchart&quot;: {&#10;      &quot;htmlLabels&quot;: false&#10;    },&#10;    &quot;sequence&quot;: {&#10;      &quot;diagramMarginX&quot;: 50,&#10;      &quot;diagramMarginY&quot;: 10,&#10;      &quot;actorMargin&quot;: 50,&#10;      &quot;width&quot;: 150,&#10;      &quot;height&quot;: 65,&#10;      &quot;boxMargin&quot;: 10,&#10;      &quot;boxTextMargin&quot;: 5,&#10;      &quot;noteMargin&quot;: 10,&#10;      &quot;messageMargin&quot;: 35,&#10;      &quot;mirrorActors&quot;: true,&#10;      &quot;bottomMarginAdj&quot;: 1,&#10;      &quot;useMaxWidth&quot;: true,&#10;      &quot;rightAngles&quot;: false,&#10;      &quot;showSequenceNumbers&quot;: false&#10;    },&#10;    &quot;gantt&quot;: {&#10;      &quot;titleTopMargin&quot;: 25,&#10;      &quot;barHeight&quot;: 20,&#10;      &quot;barGap&quot;: 4,&#10;      &quot;topPadding&quot;: 50,&#10;      &quot;leftPadding&quot;: 75,&#10;      &quot;gridLineStartPadding&quot;: 35,&#10;      &quot;fontSize&quot;: 11,&#10;      &quot;fontFamily&quot;: &quot;\&quot;Open-Sans\&quot;, \&quot;sans-serif\&quot;&quot;,&#10;      &quot;numberSectionStyles&quot;: 4,&#10;      &quot;axisFormat&quot;: &quot;%Y-%m-%d&quot;&#10;    }&#10;  }&#10;}" id="3">
                    <mxCell style="shape=image;noLabel=1;verticalAlign=top;imageAspect=1;image=data:image/svg+xml,PHN2ZyBhcmlhLWxhYmVsbGVkYnk9ImNoYXJ0LXRpdGxlLWdlTWVybWFpZE91dHB1dC0xNzM0Njc1MDc0NzQxIGNoYXJ0LWRlc2MtZ2VNZXJtYWlkT3V0cHV0LTE3MzQ2NzUwNzQ3NDEiIHJvbGU9ImltZyIgdmlld0JveD0iMCAwIDg3NC4xODc1IDEzMjkiIHN0eWxlPSJtYXgtd2lkdGg6IDg3NC4xODc1cHg7IiBoZWlnaHQ9IjEzMjkiIHhtbG5zOnhsaW5rPSJodHRwOi8vd3d3LnczLm9yZy8xOTk5L3hsaW5rIiB4bWxucz0iaHR0cDovL3d3dy53My5vcmcvMjAwMC9zdmciIHdpZHRoPSIxMDAlIiBpZD0iZ2VNZXJtYWlkT3V0cHV0LTE3MzQ2NzUwNzQ3NDEiPjx0aXRsZSBpZD0iY2hhcnQtdGl0bGUtZ2VNZXJtYWlkT3V0cHV0LTE3MzQ2NzUwNzQ3NDEiPjwvdGl0bGU+PGRlc2MgaWQ9ImNoYXJ0LWRlc2MtZ2VNZXJtYWlkT3V0cHV0LTE3MzQ2NzUwNzQ3NDEiPjwvZGVzYz48c3R5bGU+I2dlTWVybWFpZE91dHB1dC0xNzM0Njc1MDc0NzQxIHtmb250LWZhbWlseToidHJlYnVjaGV0IG1zIix2ZXJkYW5hLGFyaWFsLHNhbnMtc2VyaWY7Zm9udC1zaXplOjE2cHg7ZmlsbDojY2NjO30jZ2VNZXJtYWlkT3V0cHV0LTE3MzQ2NzUwNzQ3NDEgLmVycm9yLWljb257ZmlsbDojYTQ0MTQxO30jZ2VNZXJtYWlkT3V0cHV0LTE3MzQ2NzUwNzQ3NDEgLmVycm9yLXRleHR7ZmlsbDojZGRkO3N0cm9rZTojZGRkO30jZ2VNZXJtYWlkT3V0cHV0LTE3MzQ2NzUwNzQ3NDEgLmVkZ2UtdGhpY2tuZXNzLW5vcm1hbHtzdHJva2Utd2lkdGg6MnB4O30jZ2VNZXJtYWlkT3V0cHV0LTE3MzQ2NzUwNzQ3NDEgLmVkZ2UtdGhpY2tuZXNzLXRoaWNre3N0cm9rZS13aWR0aDozLjVweDt9I2dlTWVybWFpZE91dHB1dC0xNzM0Njc1MDc0NzQxIC5lZGdlLXBhdHRlcm4tc29saWR7c3Ryb2tlLWRhc2hhcnJheTowO30jZ2VNZXJtYWlkT3V0cHV0LTE3MzQ2NzUwNzQ3NDEgLmVkZ2UtcGF0dGVybi1kYXNoZWR7c3Ryb2tlLWRhc2hhcnJheTozO30jZ2VNZXJtYWlkT3V0cHV0LTE3MzQ2NzUwNzQ3NDEgLmVkZ2UtcGF0dGVybi1kb3R0ZWR7c3Ryb2tlLWRhc2hhcnJheToyO30jZ2VNZXJtYWlkT3V0cHV0LTE3MzQ2NzUwNzQ3NDEgLm1hcmtlcntmaWxsOmxpZ2h0Z3JleTtzdHJva2U6bGlnaHRncmV5O30jZ2VNZXJtYWlkT3V0cHV0LTE3MzQ2NzUwNzQ3NDEgLm1hcmtlci5jcm9zc3tzdHJva2U6bGlnaHRncmV5O30jZ2VNZXJtYWlkT3V0cHV0LTE3MzQ2NzUwNzQ3NDEgc3Zne2ZvbnQtZmFtaWx5OiJ0cmVidWNoZXQgbXMiLHZlcmRhbmEsYXJpYWwsc2Fucy1zZXJpZjtmb250LXNpemU6MTZweDt9I2dlTWVybWFpZE91dHB1dC0xNzM0Njc1MDc0NzQxIGcuY2xhc3NHcm91cCB0ZXh0e2ZpbGw6IzgxQjFEQjtmaWxsOiNlMGRmZGY7c3Ryb2tlOm5vbmU7Zm9udC1mYW1pbHk6InRyZWJ1Y2hldCBtcyIsdmVyZGFuYSxhcmlhbCxzYW5zLXNlcmlmO2ZvbnQtc2l6ZToxMHB4O30jZ2VNZXJtYWlkT3V0cHV0LTE3MzQ2NzUwNzQ3NDEgZy5jbGFzc0dyb3VwIHRleHQgLnRpdGxle2ZvbnQtd2VpZ2h0OmJvbGRlcjt9I2dlTWVybWFpZE91dHB1dC0xNzM0Njc1MDc0NzQxIC5ub2RlTGFiZWwsI2dlTWVybWFpZE91dHB1dC0xNzM0Njc1MDc0NzQxIC5lZGdlTGFiZWx7Y29sb3I6I2UwZGZkZjt9I2dlTWVybWFpZE91dHB1dC0xNzM0Njc1MDc0NzQxIC5lZGdlTGFiZWwgLmxhYmVsIHJlY3R7ZmlsbDojMWYyMDIwO30jZ2VNZXJtYWlkT3V0cHV0LTE3MzQ2NzUwNzQ3NDEgLmxhYmVsIHRleHR7ZmlsbDojZTBkZmRmO30jZ2VNZXJtYWlkT3V0cHV0LTE3MzQ2NzUwNzQ3NDEgLmVkZ2VMYWJlbCAubGFiZWwgc3BhbntiYWNrZ3JvdW5kOiMxZjIwMjA7fSNnZU1lcm1haWRPdXRwdXQtMTczNDY3NTA3NDc0MSAuY2xhc3NUaXRsZXtmb250LXdlaWdodDpib2xkZXI7fSNnZU1lcm1haWRPdXRwdXQtMTczNDY3NTA3NDc0MSAubm9kZSByZWN0LCNnZU1lcm1haWRPdXRwdXQtMTczNDY3NTA3NDc0MSAubm9kZSBjaXJjbGUsI2dlTWVybWFpZE91dHB1dC0xNzM0Njc1MDc0NzQxIC5ub2RlIGVsbGlwc2UsI2dlTWVybWFpZE91dHB1dC0xNzM0Njc1MDc0NzQxIC5ub2RlIHBvbHlnb24sI2dlTWVybWFpZE91dHB1dC0xNzM0Njc1MDc0NzQxIC5ub2RlIHBhdGh7ZmlsbDojMWYyMDIwO3N0cm9rZTojODFCMURCO3N0cm9rZS13aWR0aDoxcHg7fSNnZU1lcm1haWRPdXRwdXQtMTczNDY3NTA3NDc0MSAuZGl2aWRlcntzdHJva2U6IzgxQjFEQjtzdHJva2U6MTt9I2dlTWVybWFpZE91dHB1dC0xNzM0Njc1MDc0NzQxIGcuY2xpY2thYmxle2N1cnNvcjpwb2ludGVyO30jZ2VNZXJtYWlkT3V0cHV0LTE3MzQ2NzUwNzQ3NDEgZy5jbGFzc0dyb3VwIHJlY3R7ZmlsbDojMWYyMDIwO3N0cm9rZTojODFCMURCO30jZ2VNZXJtYWlkT3V0cHV0LTE3MzQ2NzUwNzQ3NDEgZy5jbGFzc0dyb3VwIGxpbmV7c3Ryb2tlOiM4MUIxREI7c3Ryb2tlLXdpZHRoOjE7fSNnZU1lcm1haWRPdXRwdXQtMTczNDY3NTA3NDc0MSAuY2xhc3NMYWJlbCAuYm94e3N0cm9rZTpub25lO3N0cm9rZS13aWR0aDowO2ZpbGw6IzFmMjAyMDtvcGFjaXR5OjAuNTt9I2dlTWVybWFpZE91dHB1dC0xNzM0Njc1MDc0NzQxIC5jbGFzc0xhYmVsIC5sYWJlbHtmaWxsOiM4MUIxREI7Zm9udC1zaXplOjEwcHg7fSNnZU1lcm1haWRPdXRwdXQtMTczNDY3NTA3NDc0MSAucmVsYXRpb257c3Ryb2tlOmxpZ2h0Z3JleTtzdHJva2Utd2lkdGg6MTtmaWxsOm5vbmU7fSNnZU1lcm1haWRPdXRwdXQtMTczNDY3NTA3NDc0MSAuZGFzaGVkLWxpbmV7c3Ryb2tlLWRhc2hhcnJheTozO30jZ2VNZXJtYWlkT3V0cHV0LTE3MzQ2NzUwNzQ3NDEgI2NvbXBvc2l0aW9uU3RhcnQsI2dlTWVybWFpZE91dHB1dC0xNzM0Njc1MDc0NzQxIC5jb21wb3NpdGlvbntmaWxsOmxpZ2h0Z3JleSFpbXBvcnRhbnQ7c3Ryb2tlOmxpZ2h0Z3JleSFpbXBvcnRhbnQ7c3Ryb2tlLXdpZHRoOjE7fSNnZU1lcm1haWRPdXRwdXQtMTczNDY3NTA3NDc0MSAjY29tcG9zaXRpb25FbmQsI2dlTWVybWFpZE91dHB1dC0xNzM0Njc1MDc0NzQxIC5jb21wb3NpdGlvbntmaWxsOmxpZ2h0Z3JleSFpbXBvcnRhbnQ7c3Ryb2tlOmxpZ2h0Z3JleSFpbXBvcnRhbnQ7c3Ryb2tlLXdpZHRoOjE7fSNnZU1lcm1haWRPdXRwdXQtMTczNDY3NTA3NDc0MSAjZGVwZW5kZW5jeVN0YXJ0LCNnZU1lcm1haWRPdXRwdXQtMTczNDY3NTA3NDc0MSAuZGVwZW5kZW5jeXtmaWxsOmxpZ2h0Z3JleSFpbXBvcnRhbnQ7c3Ryb2tlOmxpZ2h0Z3JleSFpbXBvcnRhbnQ7c3Ryb2tlLXdpZHRoOjE7fSNnZU1lcm1haWRPdXRwdXQtMTczNDY3NTA3NDc0MSAjZGVwZW5kZW5jeVN0YXJ0LCNnZU1lcm1haWRPdXRwdXQtMTczNDY3NTA3NDc0MSAuZGVwZW5kZW5jeXtmaWxsOmxpZ2h0Z3JleSFpbXBvcnRhbnQ7c3Ryb2tlOmxpZ2h0Z3JleSFpbXBvcnRhbnQ7c3Ryb2tlLXdpZHRoOjE7fSNnZU1lcm1haWRPdXRwdXQtMTczNDY3NTA3NDc0MSAjZXh0ZW5zaW9uU3RhcnQsI2dlTWVybWFpZE91dHB1dC0xNzM0Njc1MDc0NzQxIC5leHRlbnNpb257ZmlsbDpsaWdodGdyZXkhaW1wb3J0YW50O3N0cm9rZTpsaWdodGdyZXkhaW1wb3J0YW50O3N0cm9rZS13aWR0aDoxO30jZ2VNZXJtYWlkT3V0cHV0LTE3MzQ2NzUwNzQ3NDEgI2V4dGVuc2lvbkVuZCwjZ2VNZXJtYWlkT3V0cHV0LTE3MzQ2NzUwNzQ3NDEgLmV4dGVuc2lvbntmaWxsOmxpZ2h0Z3JleSFpbXBvcnRhbnQ7c3Ryb2tlOmxpZ2h0Z3JleSFpbXBvcnRhbnQ7c3Ryb2tlLXdpZHRoOjE7fSNnZU1lcm1haWRPdXRwdXQtMTczNDY3NTA3NDc0MSAjYWdncmVnYXRpb25TdGFydCwjZ2VNZXJtYWlkT3V0cHV0LTE3MzQ2NzUwNzQ3NDEgLmFnZ3JlZ2F0aW9ue2ZpbGw6IzFmMjAyMCFpbXBvcnRhbnQ7c3Ryb2tlOmxpZ2h0Z3JleSFpbXBvcnRhbnQ7c3Ryb2tlLXdpZHRoOjE7fSNnZU1lcm1haWRPdXRwdXQtMTczNDY3NTA3NDc0MSAjYWdncmVnYXRpb25FbmQsI2dlTWVybWFpZE91dHB1dC0xNzM0Njc1MDc0NzQxIC5hZ2dyZWdhdGlvbntmaWxsOiMxZjIwMjAhaW1wb3J0YW50O3N0cm9rZTpsaWdodGdyZXkhaW1wb3J0YW50O3N0cm9rZS13aWR0aDoxO30jZ2VNZXJtYWlkT3V0cHV0LTE3MzQ2NzUwNzQ3NDEgLmVkZ2VUZXJtaW5hbHN7Zm9udC1zaXplOjExcHg7fSNnZU1lcm1haWRPdXRwdXQtMTczNDY3NTA3NDc0MSA6cm9vdHstLW1lcm1haWQtZm9udC1mYW1pbHk6InRyZWJ1Y2hldCBtcyIsdmVyZGFuYSxhcmlhbCxzYW5zLXNlcmlmO308L3N0eWxlPjxnIHRyYW5zZm9ybT0idHJhbnNsYXRlKDAsIDApIj48ZGVmcz48bWFya2VyIG9yaWVudD0iYXV0byIgbWFya2VySGVpZ2h0PSIyNDAiIG1hcmtlcldpZHRoPSIxOTAiIHJlZlk9IjciIHJlZlg9IjAiIGNsYXNzPSJtYXJrZXIgYWdncmVnYXRpb24gY2xhc3NEaWFncmFtIiBpZD0iY2xhc3NEaWFncmFtLWFnZ3JlZ2F0aW9uU3RhcnQiPjxwYXRoIGQ9Ik0gMTgsNyBMOSwxMyBMMSw3IEw5LDEgWiI+PC9wYXRoPjwvbWFya2VyPjwvZGVmcz48ZGVmcz48bWFya2VyIG9yaWVudD0iYXV0byIgbWFya2VySGVpZ2h0PSIyOCIgbWFya2VyV2lkdGg9IjIwIiByZWZZPSI3IiByZWZYPSIxOSIgY2xhc3M9Im1hcmtlciBhZ2dyZWdhdGlvbiBjbGFzc0RpYWdyYW0iIGlkPSJjbGFzc0RpYWdyYW0tYWdncmVnYXRpb25FbmQiPjxwYXRoIGQ9Ik0gMTgsNyBMOSwxMyBMMSw3IEw5LDEgWiI+PC9wYXRoPjwvbWFya2VyPjwvZGVmcz48ZGVmcz48bWFya2VyIG9yaWVudD0iYXV0byIgbWFya2VySGVpZ2h0PSIyNDAiIG1hcmtlcldpZHRoPSIxOTAiIHJlZlk9IjciIHJlZlg9IjAiIGNsYXNzPSJtYXJrZXIgZXh0ZW5zaW9uIGNsYXNzRGlhZ3JhbSIgaWQ9ImNsYXNzRGlhZ3JhbS1leHRlbnNpb25TdGFydCI+PHBhdGggZD0iTSAxLDcgTDE4LDEzIFYgMSBaIj48L3BhdGg+PC9tYXJrZXI+PC9kZWZzPjxkZWZzPjxtYXJrZXIgb3JpZW50PSJhdXRvIiBtYXJrZXJIZWlnaHQ9IjI4IiBtYXJrZXJXaWR0aD0iMjAiIHJlZlk9IjciIHJlZlg9IjE5IiBjbGFzcz0ibWFya2VyIGV4dGVuc2lvbiBjbGFzc0RpYWdyYW0iIGlkPSJjbGFzc0RpYWdyYW0tZXh0ZW5zaW9uRW5kIj48cGF0aCBkPSJNIDEsMSBWIDEzIEwxOCw3IFoiPjwvcGF0aD48L21hcmtlcj48L2RlZnM+PGRlZnM+PG1hcmtlciBvcmllbnQ9ImF1dG8iIG1hcmtlckhlaWdodD0iMjQwIiBtYXJrZXJXaWR0aD0iMTkwIiByZWZZPSI3IiByZWZYPSIwIiBjbGFzcz0ibWFya2VyIGNvbXBvc2l0aW9uIGNsYXNzRGlhZ3JhbSIgaWQ9ImNsYXNzRGlhZ3JhbS1jb21wb3NpdGlvblN0YXJ0Ij48cGF0aCBkPSJNIDE4LDcgTDksMTMgTDEsNyBMOSwxIFoiPjwvcGF0aD48L21hcmtlcj48L2RlZnM+PGRlZnM+PG1hcmtlciBvcmllbnQ9ImF1dG8iIG1hcmtlckhlaWdodD0iMjgiIG1hcmtlcldpZHRoPSIyMCIgcmVmWT0iNyIgcmVmWD0iMTkiIGNsYXNzPSJtYXJrZXIgY29tcG9zaXRpb24gY2xhc3NEaWFncmFtIiBpZD0iY2xhc3NEaWFncmFtLWNvbXBvc2l0aW9uRW5kIj48cGF0aCBkPSJNIDE4LDcgTDksMTMgTDEsNyBMOSwxIFoiPjwvcGF0aD48L21hcmtlcj48L2RlZnM+PGRlZnM+PG1hcmtlciBvcmllbnQ9ImF1dG8iIG1hcmtlckhlaWdodD0iMjQwIiBtYXJrZXJXaWR0aD0iMTkwIiByZWZZPSI3IiByZWZYPSIwIiBjbGFzcz0ibWFya2VyIGRlcGVuZGVuY3kgY2xhc3NEaWFncmFtIiBpZD0iY2xhc3NEaWFncmFtLWRlcGVuZGVuY3lTdGFydCI+PHBhdGggZD0iTSA1LDcgTDksMTMgTDEsNyBMOSwxIFoiPjwvcGF0aD48L21hcmtlcj48L2RlZnM+PGRlZnM+PG1hcmtlciBvcmllbnQ9ImF1dG8iIG1hcmtlckhlaWdodD0iMjgiIG1hcmtlcldpZHRoPSIyMCIgcmVmWT0iNyIgcmVmWD0iMTkiIGNsYXNzPSJtYXJrZXIgZGVwZW5kZW5jeSBjbGFzc0RpYWdyYW0iIGlkPSJjbGFzc0RpYWdyYW0tZGVwZW5kZW5jeUVuZCI+PHBhdGggZD0iTSAxOCw3IEw5LDEzIEwxNCw3IEw5LDEgWiI+PC9wYXRoPjwvbWFya2VyPjwvZGVmcz48ZyBjbGFzcz0icm9vdCI+PGcgY2xhc3M9ImNsdXN0ZXJzIj48L2c+PGcgY2xhc3M9ImVkZ2VQYXRocyI+PHBhdGggbWFya2VyLXN0YXJ0PSJ1cmwoI2NsYXNzRGlhZ3JhbS1jb21wb3NpdGlvblN0YXJ0KSIgc3R5bGU9ImZpbGw6bm9uZSIgY2xhc3M9ImVkZ2UtcGF0dGVybi1zb2xpZCByZWxhdGlvbiIgaWQ9ImlkMSIgZD0iTTg1LjA5NDIyMjg2MTg0MjEsMzE5TDc5LjEzNDUwODYzNDg2ODQyLDMyNC43NUM3My4xNzQ3OTQ0MDc4OTQ3NCwzMzAuNSw2MS4yNTUzNjU5NTM5NDczNywzNDIsNTUuMjk1NjUxNzI2OTczNjksMzc3LjVDNDkuMzM1OTM3NSw0MTMsNDkuMzM1OTM3NSw0NzIuNSw0OS4zMzU5Mzc1LDUzMkM0OS4zMzU5Mzc1LDU5MS41LDQ5LjMzNTkzNzUsNjUxLDQ5LjMzNTkzNzUsNzE0LjMzMzMzMzMzMzMzMzRDNDkuMzM1OTM3NSw3NzcuNjY2NjY2NjY2NjY2Niw0OS4zMzU5Mzc1LDg0NC44MzMzMzMzMzMzMzM0LDQ5LjMzNTkzNzUsOTEyQzQ5LjMzNTkzNzUsOTc5LjE2NjY2NjY2NjY2NjYsNDkuMzM1OTM3NSwxMDQ2LjMzMzMzMzMzMzMzMzMsNTEuMjE5MTkxMjAxNzkwNjM2LDEwODcuNTgzMzMzMzMzMzMzM0M1My4xMDI0NDQ5MDM1ODEyNywxMTI4LjgzMzMzMzMzMzMzMzMsNTYuODY4OTUyMzA3MTYyNTQsMTE0NC4xNjY2NjY2NjY2NjY3LDU4Ljc1MjIwNjAwODk1MzE3LDExNTEuODMzMzMzMzMzMzMzM0w2MC42MzU0NTk3MTA3NDM4LDExNTkuNSI+PC9wYXRoPjxwYXRoIG1hcmtlci1zdGFydD0idXJsKCNjbGFzc0RpYWdyYW0tY29tcG9zaXRpb25TdGFydCkiIHN0eWxlPSJmaWxsOm5vbmUiIGNsYXNzPSJlZGdlLXBhdHRlcm4tc29saWQgcmVsYXRpb24iIGlkPSJpZDIiIGQ9Ik0xNjkuNzcyMDI5MTk0MDc4OTUsMzE5TDE2Ni45NDM0ODc4NzAwNjU4LDMyNC43NUMxNjQuMTE0OTQ2NTQ2MDUyNjQsMzMwLjUsMTU4LjQ1Nzg2Mzg5ODAyNjMyLDM0MiwxNTUuNjI5MzIyNTc0MDEzMTcsMzc3LjVDMTUyLjgwMDc4MTI1LDQxMywxNTIuODAwNzgxMjUsNDcyLjUsMTUyLjgwMDc4MTI1LDUzMkMxNTIuODAwNzgxMjUsNTkxLjUsMTUyLjgwMDc4MTI1LDY1MSwxNTUuNDY3ODkyMTc1ODY4NDksNjg2LjVDMTU4LjEzNTAwMzEwMTczNjk3LDcyMiwxNjMuNDY5MjI0OTUzNDczOTQsNzMzLjUsMTY2LjEzNjMzNTg3OTM0MjQzLDczOS4yNUwxNjguODAzNDQ2ODA1MjEwOSw3NDUiPjwvcGF0aD48cGF0aCBtYXJrZXItc3RhcnQ9InVybCgjY2xhc3NEaWFncmFtLWNvbXBvc2l0aW9uU3RhcnQpIiBzdHlsZT0iZmlsbDpub25lIiBjbGFzcz0iZWRnZS1wYXR0ZXJuLXNvbGlkIHJlbGF0aW9uIiBpZD0iaWQzIiBkPSJNMzMwLjUxMzQ0MDU4Mzg4MTU2LDMxOUwzMzMuNjI4NzEzNTA3NDAxMywzMjQuNzVDMzM2Ljc0Mzk4NjQzMDkyMTA0LDMzMC41LDM0Mi45NzQ1MzIyNzc5NjA2LDM0MiwzNDYuMDg5ODA1MjAxNDgwMjYsMzUzLjVDMzQ5LjIwNTA3ODEyNSwzNjUsMzQ5LjIwNTA3ODEyNSwzNzYuNSwzNDkuMjA1MDc4MTI1LDM4Mi4yNUwzNDkuMjA1MDc4MTI1LDM4OCI+PC9wYXRoPjxwYXRoIG1hcmtlci1zdGFydD0idXJsKCNjbGFzc0RpYWdyYW0tY29tcG9zaXRpb25TdGFydCkiIHN0eWxlPSJmaWxsOm5vbmUiIGNsYXNzPSJlZGdlLXBhdHRlcm4tc29saWQgcmVsYXRpb24iIGlkPSJpZDQiIGQ9Ik00MjEuNjI4OTA2MjUsMjQ4LjMyMjU0MTk5MDI3NDM3TDQ1Ny44Njk3OTE2NjY2NjY3LDI2NS44NTIxMTgzMjUyMjg3QzQ5NC4xMTA2NzcwODMzMzMzLDI4My4zODE2OTQ2NjAxODI5LDU2Ni41OTI0NDc5MTY2NjY2LDMxOC40NDA4NDczMzAwOTE0Niw2MDIuODMzMzMzMzMzMzMzNCwzNjUuNzIwNDIzNjY1MDQ1NzZDNjM5LjA3NDIxODc1LDQxMyw2MzkuMDc0MjE4NzUsNDcyLjUsNjM5LjA3NDIxODc1LDUzMkM2MzkuMDc0MjE4NzUsNTkxLjUsNjM5LjA3NDIxODc1LDY1MSw2MzkuMDc0MjE4NzUsNjk0LjE2NjY2NjY2NjY2NjZDNjM5LjA3NDIxODc1LDczNy4zMzMzMzMzMzMzMzM0LDYzOS4wNzQyMTg3NSw3NjQuMTY2NjY2NjY2NjY2Niw2MzkuMDc0MjE4NzUsNzc3LjU4MzMzMzMzMzMzMzRMNjM5LjA3NDIxODc1LDc5MSI+PC9wYXRoPjxwYXRoIG1hcmtlci1zdGFydD0idXJsKCNjbGFzc0RpYWdyYW0tYWdncmVnYXRpb25TdGFydCkiIHN0eWxlPSJmaWxsOm5vbmUiIGNsYXNzPSJlZGdlLXBhdHRlcm4tc29saWQgcmVsYXRpb24iIGlkPSJpZDUiIGQ9Ik0xNzAuMTM0MDMzODA4OTMzLDEwNzlMMTY3LjUxMjczNjUwNzQ0NDE3LDEwODQuNzVDMTY0Ljg5MTQzOTIwNTk1NTMyLDEwOTAuNSwxNTkuNjQ4ODQ0NjAyOTc3NjgsMTEwMiwxNTIuMjUzNDUzMzc5MzEyNTMsMTExNS40MTY2NjY2NjY2NjY3QzE0NC44NTgwNjIxNTU2NDc0LDExMjguODMzMzMzMzMzMzMzMywxMzUuMzA5ODc0MzExMjk0NzUsMTE0NC4xNjY2NjY2NjY2NjY3LDEzMC41MzU3ODAzODkxMTg0NiwxMTUxLjgzMzMzMzMzMzMzMzNMMTI1Ljc2MTY4NjQ2Njk0MjE1LDExNTkuNSI+PC9wYXRoPjxwYXRoIG1hcmtlci1zdGFydD0idXJsKCNjbGFzc0RpYWdyYW0tYWdncmVnYXRpb25TdGFydCkiIHN0eWxlPSJmaWxsOm5vbmUiIGNsYXNzPSJlZGdlLXBhdHRlcm4tc29saWQgcmVsYXRpb24iIGlkPSJpZDYiIGQ9Ik0zNDkuMjA1MDc4MTI1LDY3NkwzNDkuMjA1MDc4MTI1LDY4MS43NUMzNDkuMjA1MDc4MTI1LDY4Ny41LDM0OS4yMDUwNzgxMjUsNjk5LDM0Ni4yNjc1OTk5MzQwODgxLDcxMC41QzM0My4zMzAxMjE3NDMxNzYyLDcyMiwzMzcuNDU1MTY1MzYxMzUyNCw3MzMuNSwzMzQuNTE3Njg3MTcwNDQwNDcsNzM5LjI1TDMzMS41ODAyMDg5Nzk1Mjg1NSw3NDUiPjwvcGF0aD48cGF0aCBtYXJrZXItc3RhcnQ9InVybCgjY2xhc3NEaWFncmFtLWFnZ3JlZ2F0aW9uU3RhcnQpIiBzdHlsZT0iZmlsbDpub25lIiBjbGFzcz0iZWRnZS1wYXR0ZXJuLXNvbGlkIHJlbGF0aW9uIiBpZD0iaWQ3IiBkPSJNNjM5LjA3NDIxODc1LDEwMzNMNjM5LjA3NDIxODc1LDEwNDYuNDE2NjY2NjY2NjY2N0M2MzkuMDc0MjE4NzUsMTA1OS44MzMzMzMzMzMzMzMzLDYzOS4wNzQyMTg3NSwxMDg2LjY2NjY2NjY2NjY2NjcsNjM3LjM5MTMxOTA4NTc0MzgsMTEwNS44MzMzMzMzMzMzMzMzQzYzNS43MDg0MTk0MjE0ODc2LDExMjUsNjMyLjM0MjYyMDA5Mjk3NTIsMTEzNi41LDYzMC42NTk3MjA0Mjg3MTksMTE0Mi4yNUw2MjguOTc2ODIwNzY0NDYyOCwxMTQ4Ij48L3BhdGg+PHBhdGggbWFya2VyLXN0YXJ0PSJ1cmwoI2NsYXNzRGlhZ3JhbS1jb21wb3NpdGlvblN0YXJ0KSIgc3R5bGU9ImZpbGw6bm9uZSIgY2xhc3M9ImVkZ2UtcGF0dGVybi1zb2xpZCByZWxhdGlvbiIgaWQ9ImlkOCIgZD0iTTM2MS45NjA5Mzc1LDEwNTYuODA3NTc1MTg3NzQxOEwzNjkuNTEwMDkxMTQ1ODMzMywxMDY2LjI1NjMxMjY1NjQ1MTdDMzc3LjA1OTI0NDc5MTY2NjcsMTA3NS43MDUwNTAxMjUxNjEzLDM5Mi4xNTc1NTIwODMzMzMzLDEwOTQuNjAyNTI1MDYyNTgwNSw0MTguMDczNTY3NzA4MzMzMywxMTE1LjM2NjY0Nzg2MDYzMjZDNDQzLjk4OTU4MzMzMzMzMzMsMTEzNi4xMzA3NzA2NTg2ODQ3LDQ4MC43MjMzMDcyOTE2NjY3LDExNTguNzYxNTQxMzE3MzY5Miw0OTkuMDkwMTY5MjcwODMzMywxMTcwLjA3NjkyNjY0NjcxMTZMNTE3LjQ1NzAzMTI1LDExODEuMzkyMzExOTc2MDUzOSI+PC9wYXRoPjwvZz48ZyBjbGFzcz0iZWRnZUxhYmVscyI+PGcgdHJhbnNmb3JtPSJ0cmFuc2xhdGUoNDkuMzM1OTM3NSwgNzEwLjUpIiBjbGFzcz0iZWRnZUxhYmVsIj48ZyB0cmFuc2Zvcm09InRyYW5zbGF0ZSgtMzYuMjM0Mzc1LCAtOS41KSIgY2xhc3M9ImxhYmVsIj48cmVjdCBoZWlnaHQ9IjE5IiB3aWR0aD0iNzIuNDY4NzUiIHJ5PSIwIiByeD0iMCI+PC9yZWN0Pjx0ZXh0IHN0eWxlPSIiPjx0c3BhbiBjbGFzcz0icm93IiB4PSIwIiBkeT0iMWVtIiB4bWw6c3BhY2U9InByZXNlcnZlIj4ibWFuYWdlcyI8L3RzcGFuPjwvdGV4dD48L2c+PC9nPjxnIHRyYW5zZm9ybT0idHJhbnNsYXRlKDYyLjA4NTI4MjUyMDM4MTAxNCwgMzIwLjM1NTk3MzU4NDk1MTEpIiBjbGFzcz0iZWRnZVRlcm1pbmFscyI+PGcgdHJhbnNmb3JtPSJ0cmFuc2xhdGUoLTIuODkwNjI1LCAtNikiIGNsYXNzPSJpbm5lciI+PHRleHQgc3R5bGU9IiI+PHRzcGFuIGNsYXNzPSJyb3ciIHg9IjAiIGR5PSIxZW0iIHhtbDpzcGFjZT0icHJlc2VydmUiPjE8L3RzcGFuPjwvdGV4dD48L2c+PC9nPjxnIHRyYW5zZm9ybT0idHJhbnNsYXRlKDY2LjAyNzc4NDcyMjY0Njc0LCAxMTMzLjkyNjk2OTU3NTUxMDQpIiBjbGFzcz0iZWRnZVRlcm1pbmFscyI+PGcgdHJhbnNmb3JtPSJ0cmFuc2xhdGUoLTEzLjQ2MDIwNTA3ODEyNSwgLTYpIiBjbGFzcz0iaW5uZXIiPjwvZz48dGV4dCBzdHlsZT0iIj48dHNwYW4gY2xhc3M9InJvdyIgeD0iMCIgZHk9IjFlbSIgeG1sOnNwYWNlPSJwcmVzZXJ2ZSI+bWFueTwvdHNwYW4+PC90ZXh0PjwvZz48ZyB0cmFuc2Zvcm09InRyYW5zbGF0ZSgxNTIuODAwNzgxMjUsIDUzMikiIGNsYXNzPSJlZGdlTGFiZWwiPjxnIHRyYW5zZm9ybT0idHJhbnNsYXRlKC0zNi4yMzQzNzUsIC05LjUpIiBjbGFzcz0ibGFiZWwiPjxyZWN0IGhlaWdodD0iMTkiIHdpZHRoPSI3Mi40Njg3NSIgcnk9IjAiIHJ4PSIwIj48L3JlY3Q+PHRleHQgc3R5bGU9IiI+PHRzcGFuIGNsYXNzPSJyb3ciIHg9IjAiIGR5PSIxZW0iIHhtbDpzcGFjZT0icHJlc2VydmUiPiJtYW5hZ2VzIjwvdHNwYW4+PC90ZXh0PjwvZz48L2c+PGcgdHJhbnNmb3JtPSJ0cmFuc2xhdGUoMTQ4LjU4NzgzMDQwNjk4ODk5LCAzMjguMDgxODM0NzEyNzEzOSkiIGNsYXNzPSJlZGdlVGVybWluYWxzIj48ZyB0cmFuc2Zvcm09InRyYW5zbGF0ZSgtMi44OTA2MjUsIC02KSIgY2xhc3M9ImlubmVyIj48dGV4dCBzdHlsZT0iIj48dHNwYW4gY2xhc3M9InJvdyIgeD0iMCIgZHk9IjFlbSIgeG1sOnNwYWNlPSJwcmVzZXJ2ZSI+MTwvdHNwYW4+PC90ZXh0PjwvZz48L2c+PGcgdHJhbnNmb3JtPSJ0cmFuc2xhdGUoMTcwLjA0NzE3MjQ2MjgwNDg3LCA3MTcuODEyOTM0MTc1MjI5MykiIGNsYXNzPSJlZGdlVGVybWluYWxzIj48ZyB0cmFuc2Zvcm09InRyYW5zbGF0ZSgtMTMuNDYwMjA1MDc4MTI1LCAtNikiIGNsYXNzPSJpbm5lciI+PC9nPjx0ZXh0IHN0eWxlPSIiPjx0c3BhbiBjbGFzcz0icm93IiB4PSIwIiBkeT0iMWVtIiB4bWw6c3BhY2U9InByZXNlcnZlIj5tYW55PC90c3Bhbj48L3RleHQ+PC9nPjxnIHRyYW5zZm9ybT0idHJhbnNsYXRlKDM0OS4yMDUwNzgxMjUsIDM1My41KSIgY2xhc3M9ImVkZ2VMYWJlbCI+PGcgdHJhbnNmb3JtPSJ0cmFuc2xhdGUoLTM2LjIzNDM3NSwgLTkuNSkiIGNsYXNzPSJsYWJlbCI+PHJlY3QgaGVpZ2h0PSIxOSIgd2lkdGg9IjcyLjQ2ODc1IiByeT0iMCIgcng9IjAiPjwvcmVjdD48dGV4dCBzdHlsZT0iIj48dHNwYW4gY2xhc3M9InJvdyIgeD0iMCIgZHk9IjFlbSIgeG1sOnNwYWNlPSJwcmVzZXJ2ZSI+Im1hbmFnZXMiPC90c3Bhbj48L3RleHQ+PC9nPjwvZz48ZyB0cmFuc2Zvcm09InRyYW5zbGF0ZSgzMjUuNjYxMTA1MzMyMDE0MzYsIDM0MS41MzIzMDY2NDE4NzUwNCkiIGNsYXNzPSJlZGdlVGVybWluYWxzIj48ZyB0cmFuc2Zvcm09InRyYW5zbGF0ZSgtMi44OTA2MjUsIC02KSIgY2xhc3M9ImlubmVyIj48dGV4dCBzdHlsZT0iIj48dHNwYW4gY2xhc3M9InJvdyIgeD0iMCIgZHk9IjFlbSIgeG1sOnNwYWNlPSJwcmVzZXJ2ZSI+MTwvdHNwYW4+PC90ZXh0PjwvZz48L2c+PGcgdHJhbnNmb3JtPSJ0cmFuc2xhdGUoMzU5LjA4NTYzODQzNTc5OTcsIDM2NS40Mjc5MzU4ODg2ODYyKSIgY2xhc3M9ImVkZ2VUZXJtaW5hbHMiPjxnIHRyYW5zZm9ybT0idHJhbnNsYXRlKC0xMy40NjAyMDUwNzgxMjUsIC02KSIgY2xhc3M9ImlubmVyIj48L2c+PHRleHQgc3R5bGU9IiI+PHRzcGFuIGNsYXNzPSJyb3ciIHg9IjAiIGR5PSIxZW0iIHhtbDpzcGFjZT0icHJlc2VydmUiPm1hbnk8L3RzcGFuPjwvdGV4dD48L2c+PGcgdHJhbnNmb3JtPSJ0cmFuc2xhdGUoNjM5LjA3NDIxODc1LCA1MzIpIiBjbGFzcz0iZWRnZUxhYmVsIj48ZyB0cmFuc2Zvcm09InRyYW5zbGF0ZSgtMzYuMjM0Mzc1LCAtOS41KSIgY2xhc3M9ImxhYmVsIj48cmVjdCBoZWlnaHQ9IjE5IiB3aWR0aD0iNzIuNDY4NzUiIHJ5PSIwIiByeD0iMCI+PC9yZWN0Pjx0ZXh0IHN0eWxlPSIiPjx0c3BhbiBjbGFzcz0icm93IiB4PSIwIiBkeT0iMWVtIiB4bWw6c3BhY2U9InByZXNlcnZlIj4ibWFuYWdlcyI8L3RzcGFuPjwvdGV4dD48L2c+PC9nPjxnIHRyYW5zZm9ybT0idHJhbnNsYXRlKDQzMC44NTEyNzE5MDMxOTUxNCwgMjY5LjQ0NTk0MDY2OTQzNTA2KSIgY2xhc3M9ImVkZ2VUZXJtaW5hbHMiPjxnIHRyYW5zZm9ybT0idHJhbnNsYXRlKC0yLjg5MDYyNSwgLTYpIiBjbGFzcz0iaW5uZXIiPjx0ZXh0IHN0eWxlPSIiPjx0c3BhbiBjbGFzcz0icm93IiB4PSIwIiBkeT0iMWVtIiB4bWw6c3BhY2U9InByZXNlcnZlIj4xPC90c3Bhbj48L3RleHQ+PC9nPjwvZz48ZyB0cmFuc2Zvcm09InRyYW5zbGF0ZSg2NDkuMDc0MjE4NzUsIDc2OC41KSIgY2xhc3M9ImVkZ2VUZXJtaW5hbHMiPjxnIHRyYW5zZm9ybT0idHJhbnNsYXRlKC0xMy40NjAyMDUwNzgxMjUsIC02KSIgY2xhc3M9ImlubmVyIj48L2c+PHRleHQgc3R5bGU9IiI+PHRzcGFuIGNsYXNzPSJyb3ciIHg9IjAiIGR5PSIxZW0iIHhtbDpzcGFjZT0icHJlc2VydmUiPm1hbnk8L3RzcGFuPjwvdGV4dD48L2c+PGcgdHJhbnNmb3JtPSJ0cmFuc2xhdGUoMTU0LjQwNjI1LCAxMTEzLjUpIiBjbGFzcz0iZWRnZUxhYmVsIj48ZyB0cmFuc2Zvcm09InRyYW5zbGF0ZSgtMzkuNDQ1MzEyNSwgLTkuNSkiIGNsYXNzPSJsYWJlbCI+PHJlY3QgaGVpZ2h0PSIxOSIgd2lkdGg9Ijc4Ljg5MDYyNSIgcnk9IjAiIHJ4PSIwIj48L3JlY3Q+PHRleHQgc3R5bGU9IiI+PHRzcGFuIGNsYXNzPSJyb3ciIHg9IjAiIGR5PSIxZW0iIHhtbDpzcGFjZT0icHJlc2VydmUiPiJvd25lZCBieSI8L3RzcGFuPjwvdGV4dD48L2c+PC9nPjxnIHRyYW5zZm9ybT0idHJhbnNsYXRlKDE0OS4yMjYyNjU2MjEwMDcyLCAxMDg4LjcwMTMwMDM5NzM2NzMpIiBjbGFzcz0iZWRnZVRlcm1pbmFscyI+PGcgdHJhbnNmb3JtPSJ0cmFuc2xhdGUoLTIuODkwNjI1LCAtNikiIGNsYXNzPSJpbm5lciI+PHRleHQgc3R5bGU9IiI+PHRzcGFuIGNsYXNzPSJyb3ciIHg9IjAiIGR5PSIxZW0iIHhtbDpzcGFjZT0icHJlc2VydmUiPjE8L3RzcGFuPjwvdGV4dD48L2c+PC9nPjxnIHRyYW5zZm9ybT0idHJhbnNsYXRlKDE0Mi43NDUyNDQ0MjU4MDE1LCAxMTQ3LjU3MzczMjY0NTI1KSIgY2xhc3M9ImVkZ2VUZXJtaW5hbHMiPjxnIHRyYW5zZm9ybT0idHJhbnNsYXRlKC0yLjg5MDYyNSwgLTYpIiBjbGFzcz0iaW5uZXIiPjwvZz48dGV4dCBzdHlsZT0iIj48dHNwYW4gY2xhc3M9InJvdyIgeD0iMCIgZHk9IjFlbSIgeG1sOnNwYWNlPSJwcmVzZXJ2ZSI+MTwvdHNwYW4+PC90ZXh0PjwvZz48ZyB0cmFuc2Zvcm09InRyYW5zbGF0ZSgzNDkuMjA1MDc4MTI1LCA3MTAuNSkiIGNsYXNzPSJlZGdlTGFiZWwiPjxnIHRyYW5zZm9ybT0idHJhbnNsYXRlKC0zNi45Mzc1LCAtOS41KSIgY2xhc3M9ImxhYmVsIj48cmVjdCBoZWlnaHQ9IjE5IiB3aWR0aD0iNzMuODc1IiByeT0iMCIgcng9IjAiPjwvcmVjdD48dGV4dCBzdHlsZT0iIj48dHNwYW4gY2xhc3M9InJvdyIgeD0iMCIgZHk9IjFlbSIgeG1sOnNwYWNlPSJwcmVzZXJ2ZSI+ImxpbmtlZCB0byI8L3RzcGFuPjwvdGV4dD48L2c+PC9nPjxnIHRyYW5zZm9ybT0idHJhbnNsYXRlKDMzNC4wOTE2NjE0NDA0NzQ5LCA2OTMuMzc0OTkzNDg5MjMyNSkiIGNsYXNzPSJlZGdlVGVybWluYWxzIj48ZyB0cmFuc2Zvcm09InRyYW5zbGF0ZSgtMi44OTA2MjUsIC02KSIgY2xhc3M9ImlubmVyIj48dGV4dCBzdHlsZT0iIj48dHNwYW4gY2xhc3M9InJvdyIgeD0iMCIgZHk9IjFlbSIgeG1sOnNwYWNlPSJwcmVzZXJ2ZSI+MTwvdHNwYW4+PC90ZXh0PjwvZz48L2c+PGcgdHJhbnNmb3JtPSJ0cmFuc2xhdGUoMzQ3Ljg5OTQ2ODk1NjUyNDg2LCA3MzEuMjM5OTExMjk5OTIxNSkiIGNsYXNzPSJlZGdlVGVybWluYWxzIj48ZyB0cmFuc2Zvcm09InRyYW5zbGF0ZSgtMi44OTA2MjUsIC02KSIgY2xhc3M9ImlubmVyIj48L2c+PHRleHQgc3R5bGU9IiI+PHRzcGFuIGNsYXNzPSJyb3ciIHg9IjAiIGR5PSIxZW0iIHhtbDpzcGFjZT0icHJlc2VydmUiPjE8L3RzcGFuPjwvdGV4dD48L2c+PGcgdHJhbnNmb3JtPSJ0cmFuc2xhdGUoNjM5LjA3NDIxODc1LCAxMTEzLjUpIiBjbGFzcz0iZWRnZUxhYmVsIj48ZyB0cmFuc2Zvcm09InRyYW5zbGF0ZSgtMTkuMTAxNTYyNSwgLTkuNSkiIGNsYXNzPSJsYWJlbCI+PHJlY3QgaGVpZ2h0PSIxOSIgd2lkdGg9IjM4LjIwMzEyNSIgcnk9IjAiIHJ4PSIwIj48L3JlY3Q+PHRleHQgc3R5bGU9IiI+PHRzcGFuIGNsYXNzPSJyb3ciIHg9IjAiIGR5PSIxZW0iIHhtbDpzcGFjZT0icHJlc2VydmUiPiJsb2dzIjwvdHNwYW4+PC90ZXh0PjwvZz48L2c+PGcgdHJhbnNmb3JtPSJ0cmFuc2xhdGUoNjI0LjA3NDIxODc1LCAxMDUwLjUpIiBjbGFzcz0iZWRnZVRlcm1pbmFscyI+PGcgdHJhbnNmb3JtPSJ0cmFuc2xhdGUoLTIuODkwNjI1LCAtNikiIGNsYXNzPSJpbm5lciI+PHRleHQgc3R5bGU9IiI+PHRzcGFuIGNsYXNzPSJyb3ciIHg9IjAiIGR5PSIxZW0iIHhtbDpzcGFjZT0icHJlc2VydmUiPjE8L3RzcGFuPjwvdGV4dD48L2c+PC9nPjxnIHRyYW5zZm9ybT0idHJhbnNsYXRlKDY0My4yODg1NTUzMDAzMzQ3LCAxMTMwLjQxNzk5MjYzOTY0NTUpIiBjbGFzcz0iZWRnZVRlcm1pbmFscyI+PGcgdHJhbnNmb3JtPSJ0cmFuc2xhdGUoLTEzLjQ2MDIwNTA3ODEyNSwgLTYpIiBjbGFzcz0iaW5uZXIiPjwvZz48dGV4dCBzdHlsZT0iIj48dHNwYW4gY2xhc3M9InJvdyIgeD0iMCIgZHk9IjFlbSIgeG1sOnNwYWNlPSJwcmVzZXJ2ZSI+bWFueTwvdHNwYW4+PC90ZXh0PjwvZz48ZyB0cmFuc2Zvcm09InRyYW5zbGF0ZSg0MDcuMjU1ODU5Mzc1LCAxMTEzLjUpIiBjbGFzcz0iZWRnZUxhYmVsIj48ZyB0cmFuc2Zvcm09InRyYW5zbGF0ZSgtMzEuNzI2NTYyNSwgLTkuNSkiIGNsYXNzPSJsYWJlbCI+PHJlY3QgaGVpZ2h0PSIxOSIgd2lkdGg9IjYzLjQ1MzEyNSIgcnk9IjAiIHJ4PSIwIj48L3JlY3Q+PHRleHQgc3R5bGU9IiI+PHRzcGFuIGNsYXNzPSJyb3ciIHg9IjAiIGR5PSIxZW0iIHhtbDpzcGFjZT0icHJlc2VydmUiPiJyZWNvcmRzIjwvdHNwYW4+PC90ZXh0PjwvZz48L2c+PGcgdHJhbnNmb3JtPSJ0cmFuc2xhdGUoMzYxLjE2NTQzOTEyNzcyMzMsIDEwNzkuODQyNzA0NDk3OTg2NykiIGNsYXNzPSJlZGdlVGVybWluYWxzIj48ZyB0cmFuc2Zvcm09InRyYW5zbGF0ZSgtMi44OTA2MjUsIC02KSIgY2xhc3M9ImlubmVyIj48dGV4dCBzdHlsZT0iIj48dHNwYW4gY2xhc3M9InJvdyIgeD0iMCIgZHk9IjFlbSIgeG1sOnNwYWNlPSJwcmVzZXJ2ZSI+MTwvdHNwYW4+PC90ZXh0PjwvZz48L2c+PGcgdHJhbnNmb3JtPSJ0cmFuc2xhdGUoNTA1LjQyNTQ3NzQxMTE2NywgMTE1NC40NDIyMDM3NjE5MzM2KSIgY2xhc3M9ImVkZ2VUZXJtaW5hbHMiPjxnIHRyYW5zZm9ybT0idHJhbnNsYXRlKC0xMy40NjAyMDUwNzgxMjUsIC02KSIgY2xhc3M9ImlubmVyIj48L2c+PHRleHQgc3R5bGU9IiI+PHRzcGFuIGNsYXNzPSJyb3ciIHg9IjAiIGR5PSIxZW0iIHhtbDpzcGFjZT0icHJlc2VydmUiPm1hbnk8L3RzcGFuPjwvdGV4dD48L2c+PC9nPjxnIGNsYXNzPSJub2RlcyI+PGcgdHJhbnNmb3JtPSJ0cmFuc2xhdGUoNzkuMDU4NTkzNzUsIDEyMzQuNSkiIGlkPSJjbGFzc2lkLVVzZXItNiIgY2xhc3M9Im5vZGUgZGVmYXVsdCI+PHJlY3QgaGVpZ2h0PSIxNTAiIHdpZHRoPSIxNDIuMTE3MTg3NSIgeT0iLTc1IiB4PSItNzEuMDU4NTkzNzUiIGNsYXNzPSJvdXRlciB0aXRsZS1zdGF0ZSI+PC9yZWN0PjxsaW5lIHkyPSItNDQiIHkxPSItNDQiIHgyPSI3MS4wNTg1OTM3NSIgeDE9Ii03MS4wNTg1OTM3NSIgY2xhc3M9ImRpdmlkZXIiPjwvbGluZT48bGluZSB5Mj0iMTgiIHkxPSIxOCIgeDI9IjcxLjA1ODU5Mzc1IiB4MT0iLTcxLjA1ODU5Mzc1IiBjbGFzcz0iZGl2aWRlciI+PC9saW5lPjxnIGNsYXNzPSJsYWJlbCI+PHRleHQgc3R5bGU9IiI+PHRzcGFuIGNsYXNzPSJ0aXRsZS1yb3ciIHg9IjAiIGR5PSIxZW0iIHhtbDpzcGFjZT0icHJlc2VydmUiPjwvdHNwYW4+PC90ZXh0Pjx0ZXh0IHRyYW5zZm9ybT0idHJhbnNsYXRlKCAtMTcuNDY0ODQzNzUsIC02Ny41KSIgY2xhc3M9ImNsYXNzVGl0bGUiIHN0eWxlPSIiPjx0c3BhbiBjbGFzcz0idGl0bGUtcm93IiB4PSIwIiBkeT0iMWVtIiB4bWw6c3BhY2U9InByZXNlcnZlIj5Vc2VyPC90c3Bhbj48L3RleHQ+PHRleHQgdHJhbnNmb3JtPSJ0cmFuc2xhdGUoIC02My41NTg1OTM3NSwgLTMyLjUpIiBzdHlsZT0iIj48dHNwYW4gY2xhc3M9InRpdGxlLXJvdyIgeD0iMCIgZHk9IjFlbSIgeG1sOnNwYWNlPSJwcmVzZXJ2ZSI+LWNpdGl6ZW5faWQ6IHN0cjwvdHNwYW4+PC90ZXh0Pjx0ZXh0IHRyYW5zZm9ybT0idHJhbnNsYXRlKCAtNjMuNTU4NTkzNzUsIC05LjUpIiBzdHlsZT0iIj48dHNwYW4gY2xhc3M9InRpdGxlLXJvdyIgeD0iMCIgZHk9IjFlbSIgeG1sOnNwYWNlPSJwcmVzZXJ2ZSI+LW5hbWU6IHN0cjwvdHNwYW4+PC90ZXh0Pjx0ZXh0IHRyYW5zZm9ybT0idHJhbnNsYXRlKCAtNjMuNTU4NTkzNzUsIDI1LjUpIiBzdHlsZT0iIj48dHNwYW4gY2xhc3M9InRpdGxlLXJvdyIgeD0iMCIgZHk9IjFlbSIgeG1sOnNwYWNlPSJwcmVzZXJ2ZSI+K2NpdGl6ZW5faWQoKSA6IHN0cjwvdHNwYW4+PC90ZXh0Pjx0ZXh0IHRyYW5zZm9ybT0idHJhbnNsYXRlKCAtNjMuNTU4NTkzNzUsIDQ4LjUpIiBzdHlsZT0iIj48dHNwYW4gY2xhc3M9InRpdGxlLXJvdyIgeD0iMCIgZHk9IjFlbSIgeG1sOnNwYWNlPSJwcmVzZXJ2ZSI+K2Z1bGxfbmFtZSgpIDogc3RyPC90c3Bhbj48L3RleHQ+PC9nPjwvZz48ZyB0cmFuc2Zvcm09InRyYW5zbGF0ZSgyNDYuMjY1NjI1LCA5MTIpIiBpZD0iY2xhc3NpZC1BY2NvdW50LTciIGNsYXNzPSJub2RlIGRlZmF1bHQiPjxyZWN0IGhlaWdodD0iMzM0IiB3aWR0aD0iMjMxLjM5MDYyNSIgeT0iLTE2NyIgeD0iLTExNS42OTUzMTI1IiBjbGFzcz0ib3V0ZXIgdGl0bGUtc3RhdGUiPjwvcmVjdD48bGluZSB5Mj0iLTEzNiIgeTE9Ii0xMzYiIHgyPSIxMTUuNjk1MzEyNSIgeDE9Ii0xMTUuNjk1MzEyNSIgY2xhc3M9ImRpdmlkZXIiPjwvbGluZT48bGluZSB5Mj0iLTI4IiB5MT0iLTI4IiB4Mj0iMTE1LjY5NTMxMjUiIHgxPSItMTE1LjY5NTMxMjUiIGNsYXNzPSJkaXZpZGVyIj48L2xpbmU+PGcgY2xhc3M9ImxhYmVsIj48dGV4dCBzdHlsZT0iIj48dHNwYW4gY2xhc3M9InRpdGxlLXJvdyIgeD0iMCIgZHk9IjFlbSIgeG1sOnNwYWNlPSJwcmVzZXJ2ZSI+PC90c3Bhbj48L3RleHQ+PHRleHQgdHJhbnNmb3JtPSJ0cmFuc2xhdGUoIC0zMS4yMzA0Njg3NSwgLTE1OS41KSIgY2xhc3M9ImNsYXNzVGl0bGUiIHN0eWxlPSIiPjx0c3BhbiBjbGFzcz0idGl0bGUtcm93IiB4PSIwIiBkeT0iMWVtIiB4bWw6c3BhY2U9InByZXNlcnZlIj5BY2NvdW50PC90c3Bhbj48L3RleHQ+PHRleHQgdHJhbnNmb3JtPSJ0cmFuc2xhdGUoIC0xMDguMTk1MzEyNSwgLTEyNC41KSIgc3R5bGU9IiI+PHRzcGFuIGNsYXNzPSJ0aXRsZS1yb3ciIHg9IjAiIGR5PSIxZW0iIHhtbDpzcGFjZT0icHJlc2VydmUiPi1hY2NvdW50X251bWJlcjogc3RyPC90c3Bhbj48L3RleHQ+PHRleHQgdHJhbnNmb3JtPSJ0cmFuc2xhdGUoIC0xMDguMTk1MzEyNSwgLTEwMS41KSIgc3R5bGU9IiI+PHRzcGFuIGNsYXNzPSJ0aXRsZS1yb3ciIHg9IjAiIGR5PSIxZW0iIHhtbDpzcGFjZT0icHJlc2VydmUiPi1vd25lcjogVXNlcjwvdHNwYW4+PC90ZXh0Pjx0ZXh0IHRyYW5zZm9ybT0idHJhbnNsYXRlKCAtMTA4LjE5NTMxMjUsIC03OC41KSIgc3R5bGU9IiI+PHRzcGFuIGNsYXNzPSJ0aXRsZS1yb3ciIHg9IjAiIGR5PSIxZW0iIHhtbDpzcGFjZT0icHJlc2VydmUiPi1iYWxhbmNlOiBmbG9hdDwvdHNwYW4+PC90ZXh0Pjx0ZXh0IHRyYW5zZm9ybT0idHJhbnNsYXRlKCAtMTA4LjE5NTMxMjUsIC01NS41KSIgc3R5bGU9IiI+PHRzcGFuIGNsYXNzPSJ0aXRsZS1yb3ciIHg9IjAiIGR5PSIxZW0iIHhtbDpzcGFjZT0icHJlc2VydmUiPi10cmFuc2FjdGlvbnM6IGxpc3Q8L3RzcGFuPjwvdGV4dD48dGV4dCB0cmFuc2Zvcm09InRyYW5zbGF0ZSggLTEwOC4xOTUzMTI1LCAtMjAuNSkiIHN0eWxlPSIiPjx0c3BhbiBjbGFzcz0idGl0bGUtcm93IiB4PSIwIiBkeT0iMWVtIiB4bWw6c3BhY2U9InByZXNlcnZlIj4rYWNjb3VudF9udW1iZXIoKSA6IHN0cjwvdHNwYW4+PC90ZXh0Pjx0ZXh0IHRyYW5zZm9ybT0idHJhbnNsYXRlKCAtMTA4LjE5NTMxMjUsIDIuNSkiIHN0eWxlPSIiPjx0c3BhbiBjbGFzcz0idGl0bGUtcm93IiB4PSIwIiBkeT0iMWVtIiB4bWw6c3BhY2U9InByZXNlcnZlIj4rb3duZXIoKSA6IFVzZXI8L3RzcGFuPjwvdGV4dD48dGV4dCB0cmFuc2Zvcm09InRyYW5zbGF0ZSggLTEwOC4xOTUzMTI1LCAyNS41KSIgc3R5bGU9IiI+PHRzcGFuIGNsYXNzPSJ0aXRsZS1yb3ciIHg9IjAiIGR5PSIxZW0iIHhtbDpzcGFjZT0icHJlc2VydmUiPitiYWxhbmNlKCkgOiBmbG9hdDwvdHNwYW4+PC90ZXh0Pjx0ZXh0IHRyYW5zZm9ybT0idHJhbnNsYXRlKCAtMTA4LjE5NTMxMjUsIDQ4LjUpIiBzdHlsZT0iIj48dHNwYW4gY2xhc3M9InRpdGxlLXJvdyIgeD0iMCIgZHk9IjFlbSIgeG1sOnNwYWNlPSJwcmVzZXJ2ZSI+K3RyYW5zYWN0aW9ucygpIDogbGlzdDwvdHNwYW4+PC90ZXh0Pjx0ZXh0IHRyYW5zZm9ybT0idHJhbnNsYXRlKCAtMTA4LjE5NTMxMjUsIDcxLjUpIiBzdHlsZT0iIj48dHNwYW4gY2xhc3M9InRpdGxlLXJvdyIgeD0iMCIgZHk9IjFlbSIgeG1sOnNwYWNlPSJwcmVzZXJ2ZSI+K2JhbGFuY2UoZmxvYXQpPC90c3Bhbj48L3RleHQ+PHRleHQgdHJhbnNmb3JtPSJ0cmFuc2xhdGUoIC0xMDguMTk1MzEyNSwgOTQuNSkiIHN0eWxlPSIiPjx0c3BhbiBjbGFzcz0idGl0bGUtcm93IiB4PSIwIiBkeT0iMWVtIiB4bWw6c3BhY2U9InByZXNlcnZlIj4rYWRkX3RyYW5zYWN0aW9uKHRyYW5zYWN0aW9uKTwvdHNwYW4+PC90ZXh0Pjx0ZXh0IHRyYW5zZm9ybT0idHJhbnNsYXRlKCAtMTA4LjE5NTMxMjUsIDExNy41KSIgc3R5bGU9IiI+PHRzcGFuIGNsYXNzPSJ0aXRsZS1yb3ciIHg9IjAiIGR5PSIxZW0iIHhtbDpzcGFjZT0icHJlc2VydmUiPitkZXBvc2l0KGFtb3VudDogZmxvYXQpPC90c3Bhbj48L3RleHQ+PHRleHQgdHJhbnNmb3JtPSJ0cmFuc2xhdGUoIC0xMDguMTk1MzEyNSwgMTQwLjUpIiBzdHlsZT0iIj48dHNwYW4gY2xhc3M9InRpdGxlLXJvdyIgeD0iMCIgZHk9IjFlbSIgeG1sOnNwYWNlPSJwcmVzZXJ2ZSI+K3dpdGhkcmF3KGFtb3VudDogZmxvYXQpPC90c3Bhbj48L3RleHQ+PC9nPjwvZz48ZyB0cmFuc2Zvcm09InRyYW5zbGF0ZSgzNDkuMjA1MDc4MTI1LCA1MzIpIiBpZD0iY2xhc3NpZC1BVE1DYXJkLTgiIGNsYXNzPSJub2RlIGRlZmF1bHQiPjxyZWN0IGhlaWdodD0iMjg4IiB3aWR0aD0iMjMxLjM5MDYyNSIgeT0iLTE0NCIgeD0iLTExNS42OTUzMTI1IiBjbGFzcz0ib3V0ZXIgdGl0bGUtc3RhdGUiPjwvcmVjdD48bGluZSB5Mj0iLTExMyIgeTE9Ii0xMTMiIHgyPSIxMTUuNjk1MzEyNSIgeDE9Ii0xMTUuNjk1MzEyNSIgY2xhc3M9ImRpdmlkZXIiPjwvbGluZT48bGluZSB5Mj0iLTI4IiB5MT0iLTI4IiB4Mj0iMTE1LjY5NTMxMjUiIHgxPSItMTE1LjY5NTMxMjUiIGNsYXNzPSJkaXZpZGVyIj48L2xpbmU+PGcgY2xhc3M9ImxhYmVsIj48dGV4dCBzdHlsZT0iIj48dHNwYW4gY2xhc3M9InRpdGxlLXJvdyIgeD0iMCIgZHk9IjFlbSIgeG1sOnNwYWNlPSJwcmVzZXJ2ZSI+PC90c3Bhbj48L3RleHQ+PHRleHQgdHJhbnNmb3JtPSJ0cmFuc2xhdGUoIC0zMi44ODI4MTI1LCAtMTM2LjUpIiBjbGFzcz0iY2xhc3NUaXRsZSIgc3R5bGU9IiI+PHRzcGFuIGNsYXNzPSJ0aXRsZS1yb3ciIHg9IjAiIGR5PSIxZW0iIHhtbDpzcGFjZT0icHJlc2VydmUiPkFUTUNhcmQ8L3RzcGFuPjwvdGV4dD48dGV4dCB0cmFuc2Zvcm09InRyYW5zbGF0ZSggLTEwOC4xOTUzMTI1LCAtMTAxLjUpIiBzdHlsZT0iIj48dHNwYW4gY2xhc3M9InRpdGxlLXJvdyIgeD0iMCIgZHk9IjFlbSIgeG1sOnNwYWNlPSJwcmVzZXJ2ZSI+LWNhcmRfbnVtYmVyOiBzdHI8L3RzcGFuPjwvdGV4dD48dGV4dCB0cmFuc2Zvcm09InRyYW5zbGF0ZSggLTEwOC4xOTUzMTI1LCAtNzguNSkiIHN0eWxlPSIiPjx0c3BhbiBjbGFzcz0idGl0bGUtcm93IiB4PSIwIiBkeT0iMWVtIiB4bWw6c3BhY2U9InByZXNlcnZlIj4tYWNjb3VudDogQWNjb3VudDwvdHNwYW4+PC90ZXh0Pjx0ZXh0IHRyYW5zZm9ybT0idHJhbnNsYXRlKCAtMTA4LjE5NTMxMjUsIC01NS41KSIgc3R5bGU9IiI+PHRzcGFuIGNsYXNzPSJ0aXRsZS1yb3ciIHg9IjAiIGR5PSIxZW0iIHhtbDpzcGFjZT0icHJlc2VydmUiPi1waW46IHN0cjwvdHNwYW4+PC90ZXh0Pjx0ZXh0IHRyYW5zZm9ybT0idHJhbnNsYXRlKCAtMTA4LjE5NTMxMjUsIC0yMC41KSIgc3R5bGU9IiI+PHRzcGFuIGNsYXNzPSJ0aXRsZS1yb3ciIHg9IjAiIGR5PSIxZW0iIHhtbDpzcGFjZT0icHJlc2VydmUiPitjYXJkX251bWJlcigpIDogc3RyPC90c3Bhbj48L3RleHQ+PHRleHQgdHJhbnNmb3JtPSJ0cmFuc2xhdGUoIC0xMDguMTk1MzEyNSwgMi41KSIgc3R5bGU9IiI+PHRzcGFuIGNsYXNzPSJ0aXRsZS1yb3ciIHg9IjAiIGR5PSIxZW0iIHhtbDpzcGFjZT0icHJlc2VydmUiPithY2NvdW50KCkgOiBBY2NvdW50PC90c3Bhbj48L3RleHQ+PHRleHQgdHJhbnNmb3JtPSJ0cmFuc2xhdGUoIC0xMDguMTk1MzEyNSwgMjUuNSkiIHN0eWxlPSIiPjx0c3BhbiBjbGFzcz0idGl0bGUtcm93IiB4PSIwIiBkeT0iMWVtIiB4bWw6c3BhY2U9InByZXNlcnZlIj4rcGluKCkgOiBzdHI8L3RzcGFuPjwvdGV4dD48dGV4dCB0cmFuc2Zvcm09InRyYW5zbGF0ZSggLTEwOC4xOTUzMTI1LCA0OC41KSIgc3R5bGU9IiI+PHRzcGFuIGNsYXNzPSJ0aXRsZS1yb3ciIHg9IjAiIGR5PSIxZW0iIHhtbDpzcGFjZT0icHJlc2VydmUiPitiYWxhbmNlKCkgOiBmbG9hdDwvdHNwYW4+PC90ZXh0Pjx0ZXh0IHRyYW5zZm9ybT0idHJhbnNsYXRlKCAtMTA4LjE5NTMxMjUsIDcxLjUpIiBzdHlsZT0iIj48dHNwYW4gY2xhc3M9InRpdGxlLXJvdyIgeD0iMCIgZHk9IjFlbSIgeG1sOnNwYWNlPSJwcmVzZXJ2ZSI+K2FjY291bnRfbnVtYmVyKCkgOiBzdHI8L3RzcGFuPjwvdGV4dD48dGV4dCB0cmFuc2Zvcm09InRyYW5zbGF0ZSggLTEwOC4xOTUzMTI1LCA5NC41KSIgc3R5bGU9IiI+PHRzcGFuIGNsYXNzPSJ0aXRsZS1yb3ciIHg9IjAiIGR5PSIxZW0iIHhtbDpzcGFjZT0icHJlc2VydmUiPitvd25lcigpIDogVXNlcjwvdHNwYW4+PC90ZXh0Pjx0ZXh0IHRyYW5zZm9ybT0idHJhbnNsYXRlKCAtMTA4LjE5NTMxMjUsIDExNy41KSIgc3R5bGU9IiI+PHRzcGFuIGNsYXNzPSJ0aXRsZS1yb3ciIHg9IjAiIGR5PSIxZW0iIHhtbDpzcGFjZT0icHJlc2VydmUiPithZGRfdHJhbnNhY3Rpb24odHJhbnNhY3Rpb24pPC90c3Bhbj48L3RleHQ+PC9nPjwvZz48ZyB0cmFuc2Zvcm09InRyYW5zbGF0ZSg2MzkuMDc0MjE4NzUsIDkxMikiIGlkPSJjbGFzc2lkLUFUTU1hY2hpbmUtOSIgY2xhc3M9Im5vZGUgZGVmYXVsdCI+PHJlY3QgaGVpZ2h0PSIyNDIiIHdpZHRoPSI0NTQuMjI2NTYyNSIgeT0iLTEyMSIgeD0iLTIyNy4xMTMyODEyNSIgY2xhc3M9Im91dGVyIHRpdGxlLXN0YXRlIj48L3JlY3Q+PGxpbmUgeTI9Ii05MCIgeTE9Ii05MCIgeDI9IjIyNy4xMTMyODEyNSIgeDE9Ii0yMjcuMTEzMjgxMjUiIGNsYXNzPSJkaXZpZGVyIj48L2xpbmU+PGxpbmUgeTI9Ii0yOCIgeTE9Ii0yOCIgeDI9IjIyNy4xMTMyODEyNSIgeDE9Ii0yMjcuMTEzMjgxMjUiIGNsYXNzPSJkaXZpZGVyIj48L2xpbmU+PGcgY2xhc3M9ImxhYmVsIj48dGV4dCBzdHlsZT0iIj48dHNwYW4gY2xhc3M9InRpdGxlLXJvdyIgeD0iMCIgZHk9IjFlbSIgeG1sOnNwYWNlPSJwcmVzZXJ2ZSI+PC90c3Bhbj48L3RleHQ+PHRleHQgdHJhbnNmb3JtPSJ0cmFuc2xhdGUoIC00Ni40Mjk2ODc1LCAtMTEzLjUpIiBjbGFzcz0iY2xhc3NUaXRsZSIgc3R5bGU9IiI+PHRzcGFuIGNsYXNzPSJ0aXRsZS1yb3ciIHg9IjAiIGR5PSIxZW0iIHhtbDpzcGFjZT0icHJlc2VydmUiPkFUTU1hY2hpbmU8L3RzcGFuPjwvdGV4dD48dGV4dCB0cmFuc2Zvcm09InRyYW5zbGF0ZSggLTIxOS42MTMyODEyNSwgLTc4LjUpIiBzdHlsZT0iIj48dHNwYW4gY2xhc3M9InRpdGxlLXJvdyIgeD0iMCIgZHk9IjFlbSIgeG1sOnNwYWNlPSJwcmVzZXJ2ZSI+LW1hY2hpbmVfaWQ6IHN0cjwvdHNwYW4+PC90ZXh0Pjx0ZXh0IHRyYW5zZm9ybT0idHJhbnNsYXRlKCAtMjE5LjYxMzI4MTI1LCAtNTUuNSkiIHN0eWxlPSIiPjx0c3BhbiBjbGFzcz0idGl0bGUtcm93IiB4PSIwIiBkeT0iMWVtIiB4bWw6c3BhY2U9InByZXNlcnZlIj4tYXRtX2JhbGFuY2U6IGZsb2F0PC90c3Bhbj48L3RleHQ+PHRleHQgdHJhbnNmb3JtPSJ0cmFuc2xhdGUoIC0yMTkuNjEzMjgxMjUsIC0yMC41KSIgc3R5bGU9IiI+PHRzcGFuIGNsYXNzPSJ0aXRsZS1yb3ciIHg9IjAiIGR5PSIxZW0iIHhtbDpzcGFjZT0icHJlc2VydmUiPittYWNoaW5lX2lkKCkgOiBzdHI8L3RzcGFuPjwvdGV4dD48dGV4dCB0cmFuc2Zvcm09InRyYW5zbGF0ZSggLTIxOS42MTMyODEyNSwgMi41KSIgc3R5bGU9IiI+PHRzcGFuIGNsYXNzPSJ0aXRsZS1yb3ciIHg9IjAiIGR5PSIxZW0iIHhtbDpzcGFjZT0icHJlc2VydmUiPithdG1fYmFsYW5jZSgpIDogZmxvYXQ8L3RzcGFuPjwvdGV4dD48dGV4dCB0cmFuc2Zvcm09InRyYW5zbGF0ZSggLTIxOS42MTMyODEyNSwgMjUuNSkiIHN0eWxlPSIiPjx0c3BhbiBjbGFzcz0idGl0bGUtcm93IiB4PSIwIiBkeT0iMWVtIiB4bWw6c3BhY2U9InByZXNlcnZlIj4raW5zZXJ0X2NhcmQoY2FyZF9udW1iZXI6IHN0ciwgcGluOiBzdHIpPC90c3Bhbj48L3RleHQ+PHRleHQgdHJhbnNmb3JtPSJ0cmFuc2xhdGUoIC0yMTkuNjEzMjgxMjUsIDQ4LjUpIiBzdHlsZT0iIj48dHNwYW4gY2xhc3M9InRpdGxlLXJvdyIgeD0iMCIgZHk9IjFlbSIgeG1sOnNwYWNlPSJwcmVzZXJ2ZSI+K2RlcG9zaXQoYWNjb3VudDogQWNjb3VudCwgYW1vdW50OiBmbG9hdCk8L3RzcGFuPjwvdGV4dD48dGV4dCB0cmFuc2Zvcm09InRyYW5zbGF0ZSggLTIxOS42MTMyODEyNSwgNzEuNSkiIHN0eWxlPSIiPjx0c3BhbiBjbGFzcz0idGl0bGUtcm93IiB4PSIwIiBkeT0iMWVtIiB4bWw6c3BhY2U9InByZXNlcnZlIj4rd2l0aGRyYXcoYWNjb3VudDogQWNjb3VudCwgYW1vdW50OiBmbG9hdCk8L3RzcGFuPjwvdGV4dD48dGV4dCB0cmFuc2Zvcm09InRyYW5zbGF0ZSggLTIxOS42MTMyODEyNSwgOTQuNSkiIHN0eWxlPSIiPjx0c3BhbiBjbGFzcz0idGl0bGUtcm93IiB4PSIwIiBkeT0iMWVtIiB4bWw6c3BhY2U9InByZXNlcnZlIj4rdHJhbnNmZXIoc2VuZGVyOiBBY2NvdW50LCByZWNlaXZlcjogQWNjb3VudCwgYW1vdW50OiBmbG9hdCk8L3RzcGFuPjwvdGV4dD48L2c+PC9nPjxnIHRyYW5zZm9ybT0idHJhbnNsYXRlKDYwMy42NjAxNTYyNSwgMTIzNC41KSIgaWQ9ImNsYXNzaWQtVHJhbnNhY3Rpb24tMTAiIGNsYXNzPSJub2RlIGRlZmF1bHQiPjxyZWN0IGhlaWdodD0iMTczIiB3aWR0aD0iMTcyLjQwNjI1IiB5PSItODYuNSIgeD0iLTg2LjIwMzEyNSIgY2xhc3M9Im91dGVyIHRpdGxlLXN0YXRlIj48L3JlY3Q+PGxpbmUgeTI9Ii01NS41IiB5MT0iLTU1LjUiIHgyPSI4Ni4yMDMxMjUiIHgxPSItODYuMjAzMTI1IiBjbGFzcz0iZGl2aWRlciI+PC9saW5lPjxsaW5lIHkyPSI1Mi41IiB5MT0iNTIuNSIgeDI9Ijg2LjIwMzEyNSIgeDE9Ii04Ni4yMDMxMjUiIGNsYXNzPSJkaXZpZGVyIj48L2xpbmU+PGcgY2xhc3M9ImxhYmVsIj48dGV4dCBzdHlsZT0iIj48dHNwYW4gY2xhc3M9InRpdGxlLXJvdyIgeD0iMCIgZHk9IjFlbSIgeG1sOnNwYWNlPSJwcmVzZXJ2ZSI+PC90c3Bhbj48L3RleHQ+PHRleHQgdHJhbnNmb3JtPSJ0cmFuc2xhdGUoIC00My4zMzU5Mzc1LCAtNzkpIiBjbGFzcz0iY2xhc3NUaXRsZSIgc3R5bGU9IiI+PHRzcGFuIGNsYXNzPSJ0aXRsZS1yb3ciIHg9IjAiIGR5PSIxZW0iIHhtbDpzcGFjZT0icHJlc2VydmUiPlRyYW5zYWN0aW9uPC90c3Bhbj48L3RleHQ+PHRleHQgdHJhbnNmb3JtPSJ0cmFuc2xhdGUoIC03OC43MDMxMjUsIC00NCkiIHN0eWxlPSIiPjx0c3BhbiBjbGFzcz0idGl0bGUtcm93IiB4PSIwIiBkeT0iMWVtIiB4bWw6c3BhY2U9InByZXNlcnZlIj4tdHJhbnNhY3Rpb25fdHlwZTogc3RyPC90c3Bhbj48L3RleHQ+PHRleHQgdHJhbnNmb3JtPSJ0cmFuc2xhdGUoIC03OC43MDMxMjUsIC0yMSkiIHN0eWxlPSIiPjx0c3BhbiBjbGFzcz0idGl0bGUtcm93IiB4PSIwIiBkeT0iMWVtIiB4bWw6c3BhY2U9InByZXNlcnZlIj4tYW1vdW50OiBmbG9hdDwvdHNwYW4+PC90ZXh0Pjx0ZXh0IHRyYW5zZm9ybT0idHJhbnNsYXRlKCAtNzguNzAzMTI1LCAyKSIgc3R5bGU9IiI+PHRzcGFuIGNsYXNzPSJ0aXRsZS1yb3ciIHg9IjAiIGR5PSIxZW0iIHhtbDpzcGFjZT0icHJlc2VydmUiPi1hdG1faWQ6IHN0cjwvdHNwYW4+PC90ZXh0Pjx0ZXh0IHRyYW5zZm9ybT0idHJhbnNsYXRlKCAtNzguNzAzMTI1LCAyNSkiIHN0eWxlPSIiPjx0c3BhbiBjbGFzcz0idGl0bGUtcm93IiB4PSIwIiBkeT0iMWVtIiB4bWw6c3BhY2U9InByZXNlcnZlIj4tYWNjb3VudF9udW1iZXI6IHN0cjwvdHNwYW4+PC90ZXh0Pjx0ZXh0IHRyYW5zZm9ybT0idHJhbnNsYXRlKCAtNzguNzAzMTI1LCA2MCkiIHN0eWxlPSIiPjx0c3BhbiBjbGFzcz0idGl0bGUtcm93IiB4PSIwIiBkeT0iMWVtIiB4bWw6c3BhY2U9InByZXNlcnZlIj4rX19zdHJfXygpPC90c3Bhbj48L3RleHQ+PC9nPjwvZz48ZyB0cmFuc2Zvcm09InRyYW5zbGF0ZSgyNDYuMjY1NjI1LCAxNjMuNSkiIGlkPSJjbGFzc2lkLUJhbmstMTEiIGNsYXNzPSJub2RlIGRlZmF1bHQiPjxyZWN0IGhlaWdodD0iMzExIiB3aWR0aD0iMzUwLjcyNjU2MjUiIHk9Ii0xNTUuNSIgeD0iLTE3NS4zNjMyODEyNSIgY2xhc3M9Im91dGVyIHRpdGxlLXN0YXRlIj48L3JlY3Q+PGxpbmUgeTI9Ii0xMjQuNSIgeTE9Ii0xMjQuNSIgeDI9IjE3NS4zNjMyODEyNSIgeDE9Ii0xNzUuMzYzMjgxMjUiIGNsYXNzPSJkaXZpZGVyIj48L2xpbmU+PGxpbmUgeTI9Ii0xNi41IiB5MT0iLTE2LjUiIHgyPSIxNzUuMzYzMjgxMjUiIHgxPSItMTc1LjM2MzI4MTI1IiBjbGFzcz0iZGl2aWRlciI+PC9saW5lPjxnIGNsYXNzPSJsYWJlbCI+PHRleHQgc3R5bGU9IiI+PHRzcGFuIGNsYXNzPSJ0aXRsZS1yb3ciIHg9IjAiIGR5PSIxZW0iIHhtbDpzcGFjZT0icHJlc2VydmUiPjwvdHNwYW4+PC90ZXh0Pjx0ZXh0IHRyYW5zZm9ybT0idHJhbnNsYXRlKCAtMTguNzQ2MDkzNzUsIC0xNDgpIiBjbGFzcz0iY2xhc3NUaXRsZSIgc3R5bGU9IiI+PHRzcGFuIGNsYXNzPSJ0aXRsZS1yb3ciIHg9IjAiIGR5PSIxZW0iIHhtbDpzcGFjZT0icHJlc2VydmUiPkJhbms8L3RzcGFuPjwvdGV4dD48dGV4dCB0cmFuc2Zvcm09InRyYW5zbGF0ZSggLTE2Ny44NjMyODEyNSwgLTExMykiIHN0eWxlPSIiPjx0c3BhbiBjbGFzcz0idGl0bGUtcm93IiB4PSIwIiBkeT0iMWVtIiB4bWw6c3BhY2U9InByZXNlcnZlIj4tdXNlcnM6IGxpc3Q8L3RzcGFuPjwvdGV4dD48dGV4dCB0cmFuc2Zvcm09InRyYW5zbGF0ZSggLTE2Ny44NjMyODEyNSwgLTkwKSIgc3R5bGU9IiI+PHRzcGFuIGNsYXNzPSJ0aXRsZS1yb3ciIHg9IjAiIGR5PSIxZW0iIHhtbDpzcGFjZT0icHJlc2VydmUiPi1hY2NvdW50czogbGlzdDwvdHNwYW4+PC90ZXh0Pjx0ZXh0IHRyYW5zZm9ybT0idHJhbnNsYXRlKCAtMTY3Ljg2MzI4MTI1LCAtNjcpIiBzdHlsZT0iIj48dHNwYW4gY2xhc3M9InRpdGxlLXJvdyIgeD0iMCIgZHk9IjFlbSIgeG1sOnNwYWNlPSJwcmVzZXJ2ZSI+LWNhcmRzOiBsaXN0PC90c3Bhbj48L3RleHQ+PHRleHQgdHJhbnNmb3JtPSJ0cmFuc2xhdGUoIC0xNjcuODYzMjgxMjUsIC00NCkiIHN0eWxlPSIiPjx0c3BhbiBjbGFzcz0idGl0bGUtcm93IiB4PSIwIiBkeT0iMWVtIiB4bWw6c3BhY2U9InByZXNlcnZlIj4tYXRtczogbGlzdDwvdHNwYW4+PC90ZXh0Pjx0ZXh0IHRyYW5zZm9ybT0idHJhbnNsYXRlKCAtMTY3Ljg2MzI4MTI1LCAtOSkiIHN0eWxlPSIiPjx0c3BhbiBjbGFzcz0idGl0bGUtcm93IiB4PSIwIiBkeT0iMWVtIiB4bWw6c3BhY2U9InByZXNlcnZlIj4rYWRkX3VzZXIodXNlcjogVXNlcik8L3RzcGFuPjwvdGV4dD48dGV4dCB0cmFuc2Zvcm09InRyYW5zbGF0ZSggLTE2Ny44NjMyODEyNSwgMTQpIiBzdHlsZT0iIj48dHNwYW4gY2xhc3M9InRpdGxlLXJvdyIgeD0iMCIgZHk9IjFlbSIgeG1sOnNwYWNlPSJwcmVzZXJ2ZSI+K2FkZF9hY2NvdW50KGFjY291bnQ6IEFjY291bnQpPC90c3Bhbj48L3RleHQ+PHRleHQgdHJhbnNmb3JtPSJ0cmFuc2xhdGUoIC0xNjcuODYzMjgxMjUsIDM3KSIgc3R5bGU9IiI+PHRzcGFuIGNsYXNzPSJ0aXRsZS1yb3ciIHg9IjAiIGR5PSIxZW0iIHhtbDpzcGFjZT0icHJlc2VydmUiPithZGRfY2FyZChjYXJkOiBBVE1DYXJkKTwvdHNwYW4+PC90ZXh0Pjx0ZXh0IHRyYW5zZm9ybT0idHJhbnNsYXRlKCAtMTY3Ljg2MzI4MTI1LCA2MCkiIHN0eWxlPSIiPjx0c3BhbiBjbGFzcz0idGl0bGUtcm93IiB4PSIwIiBkeT0iMWVtIiB4bWw6c3BhY2U9InByZXNlcnZlIj4rYWRkX2F0bShhdG06IEFUTU1hY2hpbmUpPC90c3Bhbj48L3RleHQ+PHRleHQgdHJhbnNmb3JtPSJ0cmFuc2xhdGUoIC0xNjcuODYzMjgxMjUsIDgzKSIgc3R5bGU9IiI+PHRzcGFuIGNsYXNzPSJ0aXRsZS1yb3ciIHg9IjAiIGR5PSIxZW0iIHhtbDpzcGFjZT0icHJlc2VydmUiPitnZXRfYXRtKG1hY2hpbmVfaWQ6IHN0cikgOiBBVE1NYWNoaW5lPC90c3Bhbj48L3RleHQ+PHRleHQgdHJhbnNmb3JtPSJ0cmFuc2xhdGUoIC0xNjcuODYzMjgxMjUsIDEwNikiIHN0eWxlPSIiPjx0c3BhbiBjbGFzcz0idGl0bGUtcm93IiB4PSIwIiBkeT0iMWVtIiB4bWw6c3BhY2U9InByZXNlcnZlIj4rZmluZF9jYXJkKGNhcmRfbnVtYmVyOiBzdHIpIDogQVRNQ2FyZDwvdHNwYW4+PC90ZXh0Pjx0ZXh0IHRyYW5zZm9ybT0idHJhbnNsYXRlKCAtMTY3Ljg2MzI4MTI1LCAxMjkpIiBzdHlsZT0iIj48dHNwYW4gY2xhc3M9InRpdGxlLXJvdyIgeD0iMCIgZHk9IjFlbSIgeG1sOnNwYWNlPSJwcmVzZXJ2ZSI+K2ZpbmRfYWNjb3VudChhY2NvdW50X251bWJlcjogc3RyKSA6IEFjY291bnQ8L3RzcGFuPjwvdGV4dD48L2c+PC9nPjwvZz48L2c+PC9nPjwvc3ZnPg==;" vertex="1" parent="1">
                        <mxGeometry x="840" y="-1120" width="1080" height="1209" as="geometry"/>
                    </mxCell>
                </UserObject>
            </root>
        </mxGraphModel>
    </diagram>
</mxfile>